<?xml version="1.0" encoding="UTF-8"?>
<svg version="1.1" xmlns="http://www.w3.org/2000/svg" width="365" height="365">
<path d="M0 0 C4.93871389 -0.00036669 9.87701337 -0.0354952 14.8155365 -0.07740784 C28.94843615 -0.01141127 28.94843615 -0.01141127 34.38667297 4.68722534 C35.86021726 6.42818031 37.29379848 8.20329012 38.69917297 9.99972534 C41.02103837 12.42869955 43.42717908 14.77018927 45.82417297 17.12472534 C47.02932282 18.3388521 48.23377287 19.55367396 49.43745422 20.76925659 C52.44535189 23.77715426 55.57042949 26.59510611 58.82026672 29.33956909 C61.97534901 32.12732371 64.88168969 35.16293938 67.81636047 38.17941284 C69.57670636 40.06356432 69.57670636 40.06356432 71.69917297 40.99972534 C71.69917297 41.65972534 71.69917297 42.31972534 71.69917297 42.99972534 C72.2802179 43.25407349 72.86126282 43.50842163 73.45991516 43.77047729 C75.9409694 45.1324603 77.55435401 46.64286974 79.52729797 48.66769409 C80.60430969 49.76114136 80.60430969 49.76114136 81.70307922 50.87667847 C82.44429016 51.63915894 83.1855011 52.4016394 83.94917297 53.18722534 C88.83254022 58.18768932 93.74446993 63.04131077 99.06147766 67.58297729 C102.66537768 70.70066242 102.66537768 70.70066242 102.96926594 73.38984489 C102.97869315 74.40046549 102.98812037 75.41108608 102.99783325 76.45233154 C103.01333221 77.61045349 103.02883118 78.76857544 103.0447998 79.96179199 C103.05510979 81.87718277 103.05510979 81.87718277 103.06562805 83.83126831 C103.07983232 85.18467061 103.09486685 86.53806442 103.110672 87.89144897 C103.15089215 91.57325741 103.17832116 95.25505803 103.20268464 98.93700171 C103.22403304 102.00862733 103.25125805 105.08018974 103.27839392 108.1517688 C103.34219245 115.39807387 103.39534521 122.64440509 103.4420929 129.89083862 C103.49053835 137.36976413 103.55739302 144.84836624 103.63325769 152.32705963 C103.69767087 158.74402753 103.75037749 165.16101965 103.79374617 171.57816422 C103.819796 175.41251159 103.85037154 179.24668874 103.89229774 183.08089828 C103.9312459 186.68742919 103.95558935 190.2937676 103.96868134 193.90048218 C103.9793976 195.85593695 104.0050832 197.81129169 104.03118896 199.76660156 C104.03258881 200.93036316 104.03398865 202.09412476 104.03543091 203.29315186 C104.04674404 204.81021382 104.04674404 204.81021382 104.05828571 206.35792351 C103.64039603 209.43211611 102.838553 210.78330395 100.69917297 212.99972534 C97.37631651 214.07965369 96.05810406 214.11936904 92.69917297 212.99972534 C92.69917297 212.33972534 92.69917297 211.67972534 92.69917297 210.99972534 C92.10104797 210.71097534 91.50292297 210.42222534 90.88667297 210.12472534 C88.69917297 208.99972534 88.69917297 208.99972534 85.69917297 206.99972534 C85.30044556 204.89186096 85.30044556 204.89186096 85.26679993 202.23287964 C85.2470108 201.22651962 85.22722168 200.22015961 85.20683289 199.18330383 C85.20043793 198.07471512 85.19404297 196.9661264 85.18745422 195.82394409 C85.1694577 194.65907974 85.15146118 193.49421539 85.13291931 192.29405212 C85.07759041 188.42514452 85.04427162 184.55638623 85.01167297 180.68722534 C84.98707758 178.68524931 84.96247382 176.68327306 84.93649769 174.68131447 C84.55587776 145.12308727 84.59514202 115.55961476 84.69917297 85.99972534 C83.76742249 86.01304901 83.76742249 86.01304901 82.81684875 86.02664185 C76.32768493 86.11541878 69.83869481 86.17558534 63.34907532 86.2194519 C60.93005867 86.23951599 58.51109022 86.26677377 56.09223938 86.30148315 C52.6069293 86.35022875 49.12226281 86.37274699 45.63667297 86.39035034 C44.56240051 86.41099548 43.48812805 86.43164062 42.38130188 86.45291138 C34.87260684 86.45513446 29.56422249 85.32564221 23.71089172 80.28878784 C18.4584747 73.68840538 15.5621002 67.7571422 15.58564758 59.20944214 C15.58572311 58.2888652 15.58579865 57.36828827 15.58587646 56.41981506 C15.59103775 55.43942764 15.59619904 54.45904022 15.60151672 53.44894409 C15.60363914 51.9280291 15.60363914 51.9280291 15.60580444 50.37638855 C15.61138969 47.14663713 15.62393953 43.91695572 15.63667297 40.68722534 C15.64168988 38.49386697 15.64625245 36.30050751 15.65034485 34.10714722 C15.66135429 28.73798281 15.67807778 23.36885908 15.69917297 17.99972534 C-5.84097678 18.08361003 -27.38105076 18.17873783 -48.92109108 18.28725243 C-58.92249141 18.33737539 -68.92388355 18.38381839 -78.92533875 18.42160034 C-87.64254557 18.45454019 -96.35968883 18.4943825 -105.0768255 18.5425154 C-109.69252203 18.56776051 -114.3081765 18.58954771 -118.92392349 18.60306931 C-123.2692041 18.61590764 -127.61434032 18.63798125 -131.95954132 18.66710854 C-133.55343692 18.67617044 -135.14735577 18.68187131 -136.74127579 18.68393898 C-138.92011325 18.68727135 -141.09854378 18.70277471 -143.27729797 18.72125244 C-145.10521346 18.72954858 -145.10521346 18.72954858 -146.97005653 18.73801231 C-150.42964917 19.00984745 -153.13163997 19.58626632 -156.30082703 20.99972534 C-157.26142378 23.8815156 -157.4277977 25.68501907 -157.43225479 28.67812061 C-157.43609594 29.64529414 -157.43993708 30.61246767 -157.44389462 31.60894948 C-157.44302814 32.67391092 -157.44216166 33.73887235 -157.44126892 34.83610535 C-157.44424004 35.96557923 -157.44721117 37.09505311 -157.45027232 38.25875348 C-157.45898056 42.06345007 -157.46046936 45.86811527 -157.46195984 49.67282104 C-157.46604759 52.39255968 -157.47159016 55.11229498 -157.477005 57.83203125 C-157.49059177 65.23491129 -157.49661355 72.63778592 -157.50101566 80.04067636 C-157.50377744 84.66216602 -157.50801467 89.28365358 -157.51251984 93.90514183 C-157.52471282 106.69815725 -157.53501216 119.49117098 -157.53839493 132.28419209 C-157.53861449 133.10310567 -157.53883406 133.92201925 -157.53906028 134.76574839 C-157.53927856 135.58663193 -157.53949684 136.40751547 -157.53972173 137.25327426 C-157.5401652 138.91672345 -157.54061176 140.58017264 -157.5410614 142.24362183 C-157.54128283 143.06875175 -157.54150426 143.89388168 -157.5417324 144.74401554 C-157.5456809 158.11580657 -157.56313637 171.48754312 -157.58642092 184.85931311 C-157.61012831 198.58456985 -157.62259649 212.30979925 -157.62376285 226.0350768 C-157.62467994 233.74267143 -157.63044087 241.45019507 -157.64858246 249.15777016 C-157.66397517 255.72063582 -157.66910884 262.28340856 -157.66084436 268.84628884 C-157.65693486 272.19493098 -157.65951031 275.54323364 -157.6719017 278.89187813 C-157.68454953 282.52221254 -157.67878298 286.15206381 -157.6683197 289.78239441 C-157.67637611 290.84066368 -157.68443251 291.89893295 -157.69273305 292.98927099 C-157.64896355 299.46516243 -157.09042018 304.21013219 -152.30082703 308.99972534 C-149.90160278 309.28305445 -149.90160278 309.28305445 -147.07168579 309.20417786 C-145.40844772 309.19707794 -145.40844772 309.19707794 -143.71160889 309.18983459 C-142.48929062 309.17471329 -141.26697235 309.15959198 -140.00761414 309.14401245 C-138.0379761 309.1323094 -136.06833787 309.1206242 -134.09869587 309.10960782 C-131.97689318 309.09631928 -129.85516063 309.0785626 -127.73339653 309.0601635 C-123.30750641 309.02394182 -118.88177212 309.01235169 -114.45574951 309.00669861 C-113.33514858 309.00510181 -113.33514858 309.00510181 -112.19190925 309.00347275 C-110.66390172 309.00133321 -109.13589411 308.99924623 -107.60788643 308.99721062 C-97.30276527 308.98235881 -86.99834223 308.95090596 -76.69364929 308.85250854 C-69.74474246 308.78634204 -62.79688087 308.75940215 -55.84766585 308.77705961 C-52.17157834 308.78482357 -48.49797984 308.77276851 -44.82232475 308.71262932 C-40.71343464 308.64573893 -36.60915578 308.66504065 -32.49980164 308.69088745 C-30.68757866 308.64087837 -30.68757866 308.64087837 -28.83874512 308.58985901 C-23.64500028 308.68486964 -20.52941014 308.98218568 -16.45051765 312.36041451 C-10.22089756 319.50217703 -10.22089756 319.50217703 -10.45004177 323.79539394 C-11.30082703 325.99972534 -11.30082703 325.99972534 -13.30082703 326.99972534 C-14.73955895 327.11816991 -16.18343258 327.17676801 -17.62675476 327.20504761 C-18.54302643 327.22496262 -19.4592981 327.24487762 -20.40333557 327.26539612 C-21.92847275 327.29051018 -21.92847275 327.29051018 -23.48442078 327.31613159 C-24.56643768 327.3371846 -25.64845459 327.35823761 -26.76325989 327.37992859 C-30.42153156 327.44779901 -34.0798533 327.50633317 -37.73832703 327.56222534 C-38.99982574 327.58174255 -40.26132446 327.60125977 -41.56105042 327.62136841 C-50.97201278 327.76184912 -60.38318187 327.8719226 -69.79464722 327.972435 C-72.39132638 328.00071081 -74.987983 328.03062474 -77.5846405 328.06082153 C-87.87629843 328.17894157 -98.16771712 328.27383752 -108.45993519 328.32635593 C-113.11795459 328.35023039 -117.77556988 328.38204101 -122.43336487 328.43432617 C-126.86997291 328.48343033 -131.30606235 328.50760988 -135.74293137 328.51361656 C-137.38497908 328.51988849 -139.02702056 328.53468353 -140.66890335 328.55878639 C-150.86795031 328.70161927 -159.53663753 328.30458118 -167.43145752 321.03887939 C-175.74992625 312.5142315 -175.76308842 303.01985249 -175.80595398 291.77780151 C-175.82245675 290.22084355 -175.8401618 288.66389795 -175.85896111 287.10696602 C-175.90638263 282.84094233 -175.93478547 278.57497818 -175.9593904 274.30876946 C-175.98267495 270.65259621 -176.01656414 266.99654935 -176.05023199 263.34045929 C-176.17005263 250.22705652 -176.24179277 237.11352606 -176.30082703 223.99972534 C-176.30557509 222.95478944 -176.31032316 221.90985353 -176.31521511 220.83325291 C-176.45266158 190.05774129 -176.48767351 159.28243583 -176.4859401 128.50665557 C-176.48629096 119.28866684 -176.49806355 110.07071473 -176.51187342 100.85273772 C-176.52492733 91.80897353 -176.53031549 82.76522596 -176.52967435 73.72145241 C-176.52942136 68.38702477 -176.53217015 63.05264341 -176.5428524 57.71822548 C-176.55251166 52.77189681 -176.55262785 47.82565963 -176.54533577 42.87932777 C-176.5442916 41.07493963 -176.54664287 39.27054574 -176.55269623 37.46616745 C-176.56043346 35.00131914 -176.55576246 32.53678686 -176.54806519 30.07194519 C-176.55320875 29.3658923 -176.55835231 28.65983942 -176.56365174 27.93239099 C-176.52259369 21.96502009 -176.02026752 16.12374007 -172.17582703 11.37472534 C-159.34300371 0.77369738 -159.34300371 0.77369738 -151.32366943 0.72125244 C-150.34518539 0.71008896 -149.36670135 0.69892548 -148.35856628 0.68742371 C-146.76389526 0.68418343 -146.76389526 0.68418343 -145.13700867 0.68087769 C-144.00738205 0.67083206 -142.87775543 0.66078644 -141.71389771 0.6504364 C-137.96293119 0.61946698 -134.21203779 0.60249616 -130.46098328 0.58566284 C-127.82388731 0.56691639 -125.18679712 0.5473405 -122.54971313 0.52697754 C-116.99550589 0.48543068 -111.44129303 0.45099161 -105.88700867 0.42160034 C-98.19759707 0.38090571 -90.50830871 0.32805032 -82.81899333 0.27232587 C-55.21273251 0.07369449 -27.60701648 -0.05360305 0 0 Z " fill="#2B5273" transform="translate(224.3008270263672,20.000274658203125)"/>
<path d="M0 0 C6.37481965 5.91719487 10.78081127 12.54211267 14.71484375 20.234375 C15.21588623 21.20697266 15.21588623 21.20697266 15.72705078 22.19921875 C22.07107897 35.20725184 22.60538276 52.53635341 18.44140625 66.3125 C10.58523645 86.70511096 -1.99443232 99.37472842 -21.75854492 108.38818359 C-37.44162647 114.85148977 -55.13542092 112.93768649 -70.4921875 106.64453125 C-87.33993937 98.81271565 -97.5849288 86.23368585 -104.6171875 69.2890625 C-110.22368143 52.53257504 -108.96540913 35.03873384 -101.53515625 19.109375 C-93.48057815 3.38683854 -80.40549394 -8.05577842 -63.66015625 -13.828125 C-40.80591023 -20.15365512 -18.21235007 -15.30643008 0 0 Z M-19.45117188 22.21899414 C-20.14831299 22.86087677 -20.8454541 23.5027594 -21.5637207 24.16409302 C-24.74781392 27.21353806 -27.89940526 30.2874105 -31.00390625 33.41796875 C-31.65846802 34.07394547 -32.31302979 34.72992218 -32.98742676 35.40577698 C-35.04739448 37.47127645 -37.10382991 39.54025095 -39.16015625 41.609375 C-40.56877675 43.02301934 -41.97762892 44.43643286 -43.38671875 45.84960938 C-46.81387758 49.28770649 -50.23787644 52.72892156 -53.66015625 56.171875 C-60.06161331 52.04371315 -60.06161331 52.04371315 -62.66015625 49.19140625 C-63.40265625 48.40540039 -63.40265625 48.40540039 -64.16015625 47.60351562 C-65.16601311 46.51776648 -66.16597359 45.42652697 -67.16015625 44.33007812 C-69.6274351 41.73750777 -71.40537611 40.25077265 -74.8515625 39.18359375 C-77.86550369 38.90595957 -77.86550369 38.90595957 -80.59765625 41.171875 C-82.96918571 44.04649394 -82.96918571 44.04649394 -82.78515625 47.671875 C-81.69007662 51.07878941 -80.79378034 52.22405324 -78.29199219 54.6015625 C-76.28370904 56.53412941 -74.37017703 58.54686399 -72.4453125 60.5625 C-70.8713992 62.18258846 -69.29717253 63.80237254 -67.72265625 65.421875 C-66.93697266 66.24945313 -66.15128906 67.07703125 -65.34179688 67.9296875 C-64.57158203 68.71601563 -63.80136719 69.50234375 -63.0078125 70.3125 C-62.31695557 71.02954102 -61.62609863 71.74658203 -60.91430664 72.48535156 C-57.90296751 74.73839291 -56.45633743 75.38202433 -52.66015625 75.171875 C-49.64051756 73.20326802 -47.19961139 70.71546505 -44.66015625 68.171875 C-43.96020538 67.50599365 -43.26025452 66.8401123 -42.53909302 66.15405273 C-37.72829305 61.57738247 -33.02081683 56.8928528 -28.3034668 52.22021484 C-26.57656945 50.51504462 -24.84342859 48.81617539 -23.10424805 47.12353516 C-20.57833805 44.66441548 -18.07257672 42.18627379 -15.5703125 39.703125 C-14.79124039 38.95188354 -14.01216827 38.20064209 -13.20948792 37.42663574 C-8.72728764 33.03778166 -8.72728764 33.03778166 -6.52905273 27.32226562 C-6.37166188 23.983472 -6.37166188 23.983472 -8.84765625 21.234375 C-13.27168431 17.99008776 -15.70404306 18.74271431 -19.45117188 22.21899414 Z " fill="#39BA9B" transform="translate(308.66015625,237.828125)"/>
<path d="M0 0 C11.95469919 9.5127332 21.38354974 21.58131004 23.40625 37.12109375 C24.7988667 51.56949199 22.49673256 66.18076311 13.5 78 C12.35492777 79.35192399 11.19053039 80.68793054 10 82 C9.195625 82.886875 8.39125 83.77375 7.5625 84.6875 C-4.50281416 95.57571034 -16.94182666 100.66764234 -33.35546875 100.28515625 C-47.12978811 99.20742279 -59.70281933 92.70550667 -69.1640625 82.71484375 C-79.42662789 70.58810449 -84.05470739 55.832829 -82.84545898 39.97314453 C-81.55490409 27.95803482 -76.77241113 18.149984 -69 9 C-68.3709375 8.25878906 -67.741875 7.51757812 -67.09375 6.75390625 C-49.9365555 -11.84477385 -20.52970078 -14.4441109 0 0 Z " fill="#80BBDF" transform="translate(184,73)"/>
<path d="M0 0 C4.93946703 -0.00171056 9.87854621 -0.03678737 14.81782532 -0.07855225 C28.95101657 -0.0119291 28.95101657 -0.0119291 34.38868713 4.68621826 C35.86223142 6.42717323 37.29581264 8.20228304 38.70118713 9.99871826 C41.02305253 12.42769247 43.42919324 14.76918219 45.82618713 17.12371826 C47.03133698 18.33784502 48.23578703 19.55266688 49.43946838 20.76824951 C52.44736605 23.77614718 55.57244365 26.59409903 58.82228088 29.33856201 C61.97736317 32.12631663 64.88370385 35.1619323 67.81837463 38.17840576 C69.57872052 40.06255724 69.57872052 40.06255724 71.70118713 40.99871826 C71.70118713 41.65871826 71.70118713 42.31871826 71.70118713 42.99871826 C72.28223206 43.25306641 72.86327698 43.50741455 73.46192932 43.76947021 C75.94298356 45.13145322 77.55636817 46.64186266 79.52931213 48.66668701 C80.60632385 49.76013428 80.60632385 49.76013428 81.70509338 50.87567139 C82.44630432 51.63815186 83.18751526 52.40063232 83.95118713 53.18621826 C88.83455438 58.18668224 93.74648409 63.04030369 99.06349182 67.58197021 C102.66739184 70.69965534 102.66739184 70.69965534 102.9712801 73.38883781 C102.98070731 74.39945841 102.99013453 75.410079 102.99984741 76.45132446 C103.01534637 77.60944641 103.03084534 78.76756836 103.04681396 79.96078491 C103.05712395 81.87617569 103.05712395 81.87617569 103.06764221 83.83026123 C103.08184648 85.18366353 103.09688101 86.53705734 103.11268616 87.89044189 C103.15290631 91.57225033 103.18033533 95.25405095 103.2046988 98.93599463 C103.2260472 102.00762025 103.25327221 105.07918266 103.28040808 108.15076172 C103.34420661 115.39706679 103.39735937 122.64339801 103.44410706 129.88983154 C103.49255251 137.36875705 103.55940718 144.84735916 103.63527185 152.32605255 C103.69968503 158.74302045 103.75239165 165.16001257 103.79576033 171.57715714 C103.82181016 175.41150451 103.8523857 179.24568166 103.8943119 183.0798912 C103.93326006 186.68642211 103.95760351 190.29276052 103.9706955 193.8994751 C103.98141176 195.85492987 104.00709736 197.81028461 104.03320312 199.76559448 C104.03460297 200.92935608 104.03600281 202.09311768 104.03744507 203.29214478 C104.0487582 204.80920674 104.0487582 204.80920674 104.06029987 206.35691643 C103.64241019 209.43110903 102.84056716 210.78229687 100.70118713 212.99871826 C97.37833067 214.07864661 96.06011822 214.11836196 92.70118713 212.99871826 C92.70118713 212.33871826 92.70118713 211.67871826 92.70118713 210.99871826 C92.10306213 210.70996826 91.50493713 210.42121826 90.88868713 210.12371826 C88.70118713 208.99871826 88.70118713 208.99871826 85.70118713 206.99871826 C85.30245972 204.89085388 85.30245972 204.89085388 85.26881409 202.23187256 C85.24902496 201.22551254 85.22923584 200.21915253 85.20884705 199.18229675 C85.20245209 198.07370804 85.19605713 196.96511932 85.18946838 195.82293701 C85.17147186 194.65807266 85.15347534 193.49320831 85.13493347 192.29304504 C85.07960457 188.42413744 85.04628578 184.55537915 85.01368713 180.68621826 C84.98909174 178.68424223 84.96448798 176.68226598 84.93851185 174.68030739 C84.55789192 145.12208019 84.59715618 115.55860768 84.70118713 85.99871826 C83.76943665 86.01204193 83.76943665 86.01204193 82.81886292 86.02563477 C76.32969909 86.1144117 69.84070897 86.17457826 63.35108948 86.21844482 C60.93207283 86.23850891 58.51310438 86.26576669 56.09425354 86.30047607 C52.60894346 86.34922167 49.12427697 86.37173991 45.63868713 86.38934326 C44.56441467 86.4099884 43.49014221 86.43063354 42.38331604 86.4519043 C34.874621 86.45412738 29.56623665 85.32463513 23.71290588 80.28778076 C18.46048886 73.6873983 15.56411436 67.75613512 15.58766174 59.20843506 C15.58773727 58.28785812 15.58781281 57.36728119 15.58789062 56.41880798 C15.59305191 55.43842056 15.5982132 54.45803314 15.60353088 53.44793701 C15.60565331 51.92702202 15.60565331 51.92702202 15.6078186 50.37538147 C15.61340385 47.14563005 15.62595369 43.91594864 15.63868713 40.68621826 C15.64370404 38.49285989 15.64826661 36.29950043 15.65235901 34.10614014 C15.66336845 28.73697573 15.68009194 23.367852 15.70118713 17.99871826 C-5.83896262 18.08260295 -27.3790366 18.17773075 -48.91907692 18.28624535 C-58.92047725 18.33636831 -68.92186939 18.38281131 -78.92332458 18.42059326 C-87.64053141 18.45353311 -96.35767467 18.49337542 -105.07481134 18.54150832 C-109.69050787 18.56675343 -114.30616234 18.58854063 -118.92190933 18.60206223 C-123.26718994 18.61490056 -127.61232616 18.63697417 -131.95752716 18.66610146 C-133.55142276 18.67516336 -135.14534161 18.68086423 -136.73926163 18.6829319 C-138.91809909 18.68626427 -141.09652962 18.70176763 -143.27528381 18.72024536 C-145.1031993 18.7285415 -145.1031993 18.7285415 -146.96804237 18.73700523 C-150.42763501 19.00884037 -153.12962581 19.58525924 -156.29881287 20.99871826 C-157.25940962 23.88050852 -157.42578354 25.68401199 -157.43024063 28.67711353 C-157.43408178 29.64428706 -157.43792292 30.61146059 -157.44188046 31.6079424 C-157.44101398 32.67290384 -157.4401475 33.73786527 -157.43925476 34.83509827 C-157.44222588 35.96457215 -157.44519701 37.09404603 -157.44825816 38.2577464 C-157.4569664 42.06244299 -157.4584552 45.86710819 -157.45994568 49.67181396 C-157.46403343 52.3915526 -157.469576 55.1112879 -157.47499084 57.83102417 C-157.48857761 65.23390421 -157.49459939 72.63677884 -157.4990015 80.03966928 C-157.50176328 84.66115894 -157.50600051 89.2826465 -157.51050568 93.90413475 C-157.52269866 106.69715017 -157.532998 119.4901639 -157.53638077 132.28318501 C-157.53660033 133.10209859 -157.5368199 133.92101217 -157.53704612 134.76474131 C-157.5372644 135.58562485 -157.53748268 136.40650839 -157.53770757 137.25226718 C-157.53815103 138.91571637 -157.5385976 140.57916556 -157.53904724 142.24261475 C-157.53926867 143.06774467 -157.5394901 143.8928746 -157.53971824 144.74300846 C-157.54366674 158.11479949 -157.56112221 171.48653604 -157.58440676 184.85830603 C-157.60811415 198.58356277 -157.62058233 212.30879217 -157.62174869 226.03406972 C-157.62266578 233.74166435 -157.62842671 241.44918799 -157.6465683 249.15676308 C-157.66196101 255.71962874 -157.66709468 262.28240148 -157.6588302 268.84528176 C-157.6549207 272.1939239 -157.65749615 275.54222656 -157.66988754 278.89087105 C-157.68253537 282.52120546 -157.67676882 286.15105673 -157.66630554 289.78138733 C-157.67436195 290.8396566 -157.68241835 291.89792587 -157.69071889 292.98826391 C-157.64694939 299.46415535 -157.08840602 304.20912511 -152.29881287 308.99871826 C-149.89958862 309.28204737 -149.89958862 309.28204737 -147.06967163 309.20317078 C-145.40643356 309.19607086 -145.40643356 309.19607086 -143.70959473 309.18882751 C-142.48727646 309.17370621 -141.26495819 309.1585849 -140.00559998 309.14300537 C-138.03596194 309.13130232 -136.06632371 309.11961712 -134.09668171 309.10860074 C-131.97487902 309.0953122 -129.85314647 309.07755552 -127.73138237 309.05915642 C-123.30549225 309.02293474 -118.87975796 309.01134461 -114.45373535 309.00569153 C-113.33313442 309.00409473 -113.33313442 309.00409473 -112.18989509 309.00246567 C-110.66188756 309.00032613 -109.13387995 308.99823915 -107.60587227 308.99620354 C-97.30075111 308.98135173 -86.99632807 308.94989888 -76.69163513 308.85150146 C-69.7427283 308.78533496 -62.79486671 308.75839507 -55.84565169 308.77605253 C-52.16956418 308.78381649 -48.49596568 308.77176143 -44.82031059 308.71162224 C-40.71142048 308.64473185 -36.60714162 308.66403357 -32.49778748 308.68988037 C-30.6855645 308.63987129 -30.6855645 308.63987129 -28.83673096 308.58885193 C-23.64298612 308.68386256 -20.52739598 308.9811786 -16.44850349 312.35940742 C-10.2188834 319.50116995 -10.2188834 319.50116995 -10.44802761 323.79438686 C-11.29881287 325.99871826 -11.29881287 325.99871826 -13.29881287 326.99871826 C-14.73754479 327.11716283 -16.18141842 327.17576093 -17.6247406 327.20404053 C-18.54101227 327.22395554 -19.45728394 327.24387054 -20.40132141 327.26438904 C-21.92645859 327.2895031 -21.92645859 327.2895031 -23.48240662 327.31512451 C-24.56442352 327.33617752 -25.64644043 327.35723053 -26.76124573 327.37892151 C-30.4195174 327.44679193 -34.07783914 327.50532609 -37.73631287 327.56121826 C-38.99781158 327.58073547 -40.2593103 327.60025269 -41.55903625 327.62036133 C-50.96999862 327.76084204 -60.38116771 327.87091552 -69.79263306 327.97142792 C-72.38931222 327.99970373 -74.98596884 328.02961766 -77.58262634 328.05981445 C-87.87428427 328.17793449 -98.16570296 328.27283044 -108.45792103 328.32534885 C-113.11594043 328.34922331 -117.77355572 328.38103393 -122.43135071 328.43331909 C-126.86795875 328.48242325 -131.30404819 328.5066028 -135.74091721 328.51260948 C-137.38296492 328.51888141 -139.0250064 328.53367645 -140.66688919 328.55777931 C-150.86593615 328.70061219 -159.53462337 328.3035741 -167.42944336 321.03787231 C-175.74678128 312.51438326 -175.76106842 303.02179114 -175.80393982 291.78118896 C-175.82044278 290.22457051 -175.83814785 288.66796441 -175.85694695 287.11137199 C-175.90436994 282.84603163 -175.93277197 278.58075081 -175.95737624 274.31522536 C-175.98066086 270.65951341 -176.01455063 267.00392785 -176.04821783 263.34829909 C-176.16807461 250.23194755 -176.239807 237.1154681 -176.29881287 223.99871826 C-176.30356093 222.95280234 -176.308309 221.90688643 -176.31320095 220.82927608 C-176.45066168 190.01706017 -176.48565976 159.20504913 -176.48392594 128.39256489 C-176.48427701 119.1597048 -176.49605405 109.92688123 -176.50985926 100.69403285 C-176.52290326 91.64010892 -176.52830177 82.5862016 -176.52766019 73.53226835 C-176.52740696 68.1900797 -176.53016983 62.84793726 -176.54083824 57.50575829 C-176.5504807 52.55451119 -176.55062539 47.60335556 -176.54332161 42.65210533 C-176.5422754 40.843652 -176.5446408 39.03519296 -176.55068207 37.22674942 C-176.55839026 34.76120091 -176.55376754 32.29597064 -176.54605103 29.83042908 C-176.55376637 28.76261122 -176.55376637 28.76261122 -176.56163758 27.67322129 C-176.53215745 23.41410999 -175.85275681 19.96115167 -174.29881287 15.99871826 C-173.63881287 15.99871826 -172.97881287 15.99871826 -172.29881287 15.99871826 C-172.46105504 16.75584453 -172.62329721 17.51297079 -172.79045582 18.29304028 C-173.47807352 23.3054421 -173.43986819 28.23593934 -173.43252563 33.28956604 C-173.43479119 34.43173716 -173.43705675 35.57390828 -173.43939096 36.75069064 C-173.44572451 40.58052847 -173.444902 44.41033085 -173.44407654 48.24017334 C-173.44652502 50.98504266 -173.45044271 53.7299095 -173.45425415 56.47477722 C-173.46255361 63.15859925 -173.46530867 69.84241245 -173.46586653 76.52623919 C-173.46634202 81.96032638 -173.46839845 87.39441066 -173.47156715 92.82849693 C-173.48037181 108.2419665 -173.48498683 123.65542912 -173.48423668 139.06890122 C-173.48419672 139.89950305 -173.48415677 140.73010488 -173.4841156 141.58587646 C-173.48407472 142.4174948 -173.48403384 143.24911313 -173.48399172 144.10593202 C-173.4835853 157.58219015 -173.49315419 171.05842034 -173.50725397 184.53467039 C-173.52162401 198.37868771 -173.5285238 212.22269141 -173.52766019 226.06671637 C-173.52732844 233.83638323 -173.53006602 241.60602079 -173.54083824 249.37568092 C-173.5499515 255.99107582 -173.55211171 262.60642813 -173.54532882 269.22182659 C-173.54206776 272.5951005 -173.54308258 275.9682262 -173.55068207 279.34150314 C-173.55839703 283.00338149 -173.55376021 286.66504583 -173.54605103 290.32691956 C-173.55376637 291.9156554 -173.55376637 291.9156554 -173.56163758 293.53648692 C-173.51697365 303.14728185 -172.79477117 311.5420168 -165.65818787 318.62762451 C-160.68554416 323.11381395 -156.54004966 325.24981482 -149.70890808 325.24595642 C-148.59595871 325.25015091 -147.48300934 325.2543454 -146.33633423 325.25866699 C-145.12480179 325.25304749 -143.91326935 325.24742798 -142.6650238 325.24163818 C-141.38152542 325.24353653 -140.09802704 325.24543488 -138.77563477 325.24739075 C-135.26092826 325.25223053 -131.7463491 325.2445926 -128.23165798 325.2344377 C-124.54565012 325.22563427 -120.85964599 325.22741515 -117.17362976 325.22779846 C-110.97982157 325.2268623 -104.78606241 325.21818768 -98.5922699 325.20452881 C-91.44812779 325.18883159 -84.30403946 325.18352981 -77.15988135 325.18426436 C-69.53678145 325.18494212 -61.91370208 325.177985 -54.29060841 325.16881776 C-52.1032764 325.16669438 -49.91594775 325.16597764 -47.72861481 325.16557884 C-43.63577789 325.16437934 -39.54300328 325.15463371 -35.45018005 325.14398193 C-34.24674454 325.14443512 -33.04330902 325.14488831 -31.80340576 325.14535522 C-25.55144465 325.12163717 -19.49732319 324.82605548 -13.29881287 323.99871826 C-14.27381134 319.18009214 -16.25611529 315.8700556 -20.29881287 312.99871826 C-24.50548572 311.97835 -28.61517617 312.08582594 -32.92601013 312.15985107 C-34.83185379 312.15091576 -34.83185379 312.15091576 -36.77619934 312.14179993 C-39.53160107 312.12919649 -42.28573291 312.13852091 -45.04103279 312.16510773 C-49.3991873 312.20702346 -53.75643164 312.19979456 -58.11471558 312.18615723 C-65.00779172 312.17040238 -71.90032902 312.18759165 -78.79333776 312.21882796 C-91.13854582 312.27414663 -103.48376713 312.2826839 -115.82907528 312.26532435 C-120.15986021 312.2606601 -124.49014547 312.27339842 -128.82084477 312.30042982 C-130.86596884 312.31127298 -132.91098032 312.31546379 -134.95613098 312.31681824 C-137.44743425 312.31888462 -139.93876176 312.33181899 -142.42993164 312.35768127 C-143.53038818 312.35525925 -144.63084473 312.35283722 -145.76464844 312.3503418 C-147.19510419 312.35706594 -147.19510419 312.35706594 -148.65445805 312.36392593 C-152.93587115 311.77262673 -155.39583401 310.12239765 -158.08459949 306.77646065 C-159.59458668 303.32207981 -159.73660417 300.25815283 -159.72622681 296.55484009 C-159.73591985 295.81337419 -159.7456129 295.0719083 -159.75559968 294.30797374 C-159.7843737 291.82573684 -159.79196328 289.34389663 -159.79954529 286.86151123 C-159.81565197 285.07888283 -159.83301365 283.29626539 -159.85153389 281.51366043 C-159.89808635 276.65251268 -159.92582057 271.79141769 -159.94991326 266.93011332 C-159.97259117 262.81057515 -160.00590772 258.69115156 -160.03937095 254.57168901 C-160.14572926 241.47131991 -160.21785662 228.37087138 -160.28230953 215.27023888 C-160.30378679 211.01271719 -160.32753158 206.75520964 -160.3513397 202.49770045 C-160.48285189 178.87116865 -160.56576889 155.24487697 -160.58802986 131.61798477 C-160.59906993 120.10406261 -160.62440105 108.59035606 -160.66755706 97.07650769 C-160.69762286 88.76125051 -160.71250995 80.44605148 -160.71583718 72.130741 C-160.71816832 67.23797617 -160.7269001 62.34543619 -160.75229836 57.45273209 C-160.7754594 52.93219145 -160.77986163 48.41202777 -160.76953697 43.89144325 C-160.76904117 42.24261401 -160.77537462 40.59376622 -160.78909302 38.94499397 C-160.80677011 36.69634319 -160.79973323 34.44906038 -160.78656006 32.20040894 C-160.78894841 30.9464287 -160.79133677 29.69244846 -160.79379749 28.40046883 C-160.11121332 23.70945224 -158.30664137 20.50187116 -154.48224258 17.63875008 C-151.39327407 16.7332764 -148.58299449 16.75346136 -145.36393738 16.75820923 C-144.66631578 16.75650038 -143.96869418 16.75479153 -143.24993253 16.7530309 C-140.91293129 16.74973731 -138.57621733 16.76073738 -136.23924255 16.77166748 C-134.56379707 16.77223162 -132.88835108 16.77191497 -131.21290588 16.77078247 C-126.66365782 16.77020808 -122.11451499 16.78197643 -117.5652914 16.79593039 C-112.81137054 16.80842329 -108.05744732 16.80960711 -103.30351257 16.8119812 C-94.3008836 16.8182002 -85.29830314 16.83461672 -76.29569554 16.85468018 C-66.04671148 16.87702609 -55.7977251 16.88802932 -45.54872274 16.89807105 C-24.46539237 16.91898257 -3.38210567 16.95416673 17.70118713 16.99871826 C17.70705338 17.56755234 17.71291962 18.13638641 17.71896362 18.72245789 C17.78321283 24.6769228 17.86771142 30.6308629 17.96363831 36.5848999 C17.9967625 38.80292819 18.02483282 41.02103823 18.04762268 43.23919678 C18.08139915 46.4393375 18.13372667 49.63873739 18.18946838 52.83856201 C18.19905327 54.3109861 18.19905327 54.3109861 18.20883179 55.81315613 C18.38962725 64.40160759 20.23518837 71.38495164 25.12696838 78.49090576 C30.82003774 83.94382083 37.46217431 83.4539356 44.84571838 83.47528076 C46.59401192 83.49865005 46.59401192 83.49865005 48.37762451 83.52249146 C52.089639 83.56992646 55.8014656 83.59776035 59.51368713 83.62371826 C63.24363047 83.66016644 66.97346626 83.70070524 70.70330811 83.74636841 C73.0225088 83.7736736 75.34178883 83.79499041 77.66110229 83.80990601 C78.70276047 83.82016815 79.74441864 83.8304303 80.81764221 83.84100342 C81.73886368 83.84749908 82.66008514 83.85399475 83.60922241 83.86068726 C85.70118713 83.99871826 85.70118713 83.99871826 86.70118713 84.99871826 C86.82130911 87.99233013 86.87669289 90.96387281 86.89064026 93.9586792 C86.89893356 94.90045013 86.90722687 95.84222107 86.91577148 96.81253052 C86.93322799 98.86905957 86.94837924 100.92560913 86.96154785 102.9821701 C86.98258529 106.25615047 87.00962188 109.53003263 87.03822327 112.80395508 C87.09805882 119.78550417 87.14992058 126.76710181 87.20118713 133.74871826 C87.26077963 141.77486439 87.32374387 149.80096569 87.39306641 157.827034 C87.41919543 161.01752787 87.44029674 164.20802707 87.46107483 167.39855957 C87.49670013 172.30713714 87.56533477 177.21432337 87.65611267 182.12217712 C87.68676199 184.07814108 87.70597242 186.03431059 87.7150116 187.99049377 C87.73025267 190.88793992 87.7830262 193.78257856 87.84376526 196.67938232 C87.84003654 197.54721218 87.83630783 198.41504204 87.83246613 199.30916977 C87.95900642 203.49873215 88.25629215 206.17440778 91.379776 209.14367676 C94.55996136 211.30859448 94.55996136 211.30859448 98.07618713 210.81121826 C98.94243713 210.54309326 99.80868713 210.27496826 100.70118713 209.99871826 C100.73168013 196.04039471 100.75212475 182.08207052 100.76368713 168.12371826 C100.76454315 167.0975666 100.76539917 166.07141495 100.76628113 165.01416779 C100.78964799 133.32987545 100.62080935 101.67187705 99.70118713 69.99871826 C99.12465393 69.74888184 98.54812073 69.49904541 97.95411682 69.24163818 C95.38655362 67.82513794 93.70128946 66.20949859 91.65431213 64.11199951 C90.89118713 63.33791748 90.12806213 62.56383545 89.34181213 61.76629639 C88.55290588 60.95612061 87.76399963 60.14594482 86.95118713 59.31121826 C81.92052625 54.16736751 76.86927372 49.16660329 71.40724182 44.47991943 C69.40599758 42.74243392 67.54164663 40.90490845 65.70118713 38.99871826 C63.26218631 36.52212205 60.79376292 34.17840969 58.13868713 31.93621826 C53.23211331 27.72919556 48.76396827 23.08676092 44.21974182 18.4977417 C40.31451825 14.56888592 36.36158746 10.76607483 32.11915588 7.19793701 C30.70118713 5.99871826 30.70118713 5.99871826 28.70118713 3.99871826 C20.05237851 2.00430398 10.46725441 2.87574813 1.62843323 2.91351318 C-0.08417688 2.91711483 -1.79678787 2.92031845 -3.50939941 2.92315674 C-8.13525725 2.9324761 -12.76106241 2.94879784 -17.38689089 2.96752715 C-20.28056768 2.97920797 -23.17424668 2.98986156 -26.06792831 3.00026894 C-35.13310353 3.03344434 -44.19824196 3.07143697 -53.26337016 3.11563414 C-63.70846783 3.16642588 -74.15344995 3.20063387 -84.59865057 3.22081488 C-92.6898627 3.23750408 -100.78092789 3.26938564 -108.87204111 3.31266099 C-113.69784427 3.33811195 -118.5234647 3.35708579 -123.34933853 3.36003685 C-127.88531149 3.36319446 -132.42080808 3.3852295 -136.95663261 3.42159271 C-138.61741226 3.43168133 -140.27824898 3.4350472 -141.93905449 3.4310627 C-151.88326865 3.41178149 -159.42660044 3.45132 -167.11131287 10.62371826 C-167.83318787 11.40746826 -168.55506287 12.19121826 -169.29881287 12.99871826 C-170.28881287 13.65871826 -171.27881287 14.31871826 -172.29881287 14.99871826 C-170.92639173 9.81401619 -167.63406041 6.88888329 -163.29881287 3.99871826 C-157.13872276 0.70516429 -151.81639482 0.55695605 -144.90794373 0.56634521 C-143.21306572 0.55105774 -143.21306572 0.55105774 -141.48394775 0.53546143 C-137.74380018 0.50526651 -134.00391038 0.49603651 -130.26365662 0.48699951 C-127.62941674 0.47011641 -124.99518475 0.45196142 -122.36096191 0.43260193 C-116.10953279 0.38890252 -109.85812892 0.36041931 -103.60659367 0.33727854 C-96.643088 0.31072094 -89.67973316 0.26649308 -82.71632981 0.22099411 C-55.14439832 0.04242625 -27.57249921 -0.04484434 0 0 Z " fill="#0A2444" transform="translate(224.29881286621094,20.00128173828125)"/>
<path d="M0 0 C0.70296644 -0.00709439 1.40593288 -0.01418877 2.13020134 -0.02149814 C4.48595721 -0.03910197 6.84006822 -0.02096339 9.19580078 -0.00291443 C10.8844681 -0.00805239 12.57313006 -0.01533274 14.26177979 -0.02459717 C18.84864347 -0.04313526 23.43492701 -0.03015757 28.02176666 -0.01050687 C32.81920565 0.00586115 37.61660736 -0.00293068 42.4140625 -0.00802612 C50.47096032 -0.01254915 58.52762613 0.00333571 66.58447266 0.03126526 C75.90268887 0.06331812 85.2204866 0.06330212 94.53873253 0.04605049 C103.4982262 0.03019323 112.45756628 0.0369138 121.41705322 0.0539875 C125.23199546 0.0608647 129.04681483 0.0598187 132.86175537 0.05244255 C137.35329227 0.04478805 141.84435226 0.05687831 146.3358078 0.08429146 C147.98537531 0.09118519 149.63498727 0.09126268 151.28455353 0.08407593 C153.5343122 0.07540287 155.78259175 0.09129829 158.03222656 0.11352539 C159.29173126 0.11633231 160.55123596 0.11913923 161.84890747 0.12203121 C165.57765926 0.71793094 166.75800695 1.66126285 169.01611328 4.62818909 C169.72493631 7.5360379 169.35583117 9.57072809 169.01611328 12.62818909 C167.20448061 15.30250398 166.13850251 15.58739268 163.01611328 16.62818909 C160.78277977 16.72672294 158.54656522 16.76322297 156.31106567 16.76863098 C155.28345731 16.77308766 155.28345731 16.77308766 154.23508918 16.77763438 C151.93438308 16.78632152 149.63372902 16.78782963 147.33300781 16.7893219 C145.6855254 16.79395002 144.03804406 16.79897467 142.39056396 16.80436707 C137.91121031 16.81749264 133.43187165 16.82393619 128.95250177 16.82837772 C126.1548648 16.83130787 123.35723193 16.83541254 120.55959702 16.8398819 C111.80892046 16.85355652 103.05825327 16.86322365 94.30756676 16.86708379 C84.20133736 16.87156624 74.0952431 16.88912295 63.9890548 16.91808438 C56.18006077 16.93968716 48.37110481 16.9497873 40.56208122 16.95112491 C35.89666227 16.95217384 31.23137035 16.95810042 26.56598282 16.97594452 C22.17799222 16.99240121 17.79022448 16.99459245 13.40221405 16.98580551 C11.79174834 16.98503388 10.18127077 16.98939449 8.57083511 16.99926376 C6.37199974 17.01194872 4.17395786 17.00612597 1.97512817 16.99568176 C0.74474382 16.99714832 -0.48564053 16.99861488 -1.75330925 17.00012589 C-5.28061258 16.594027 -7.16566939 15.75027739 -9.98388672 13.62818909 C-11.41050891 10.77494471 -11.2942254 8.7936436 -10.98388672 5.62818909 C-7.96919733 0.56264912 -5.76778266 0.00268495 0 0 Z " fill="#2C5374" transform="translate(112.98388671875,189.37181091308594)"/>
<path d="M0 0 C6.42869663 3.35745286 10.51641783 8.17819715 14.09375 14.37890625 C16.47606815 22.31996674 16.06600557 30.70628596 12.21875 38.12890625 C7.94852469 44.330112 3.0205923 48.68835356 -4.28125 50.87890625 C-12.92262672 51.74304392 -19.24334023 49.95249455 -26.59375 45.37890625 C-32.51556903 39.28789239 -35.6983636 32.27650154 -36.15625 23.75390625 C-35.95826903 16.00625094 -32.15351459 9.50117084 -26.78125 4.12890625 C-18.68950322 -1.33565001 -9.47881234 -2.96878532 0 0 Z " fill="#295172" transform="translate(163.78125,81.87109375)"/>
<path d="M0 0 C0.99 0.33 1.98 0.66 3 1 C4.75838856 1.08343045 6.51985702 1.10733066 8.28019714 1.09765625 C9.37501404 1.09443863 10.46983093 1.09122101 11.5978241 1.08790588 C12.79941666 1.07952194 14.00100922 1.071138 15.23901367 1.0625 C17.1813524 1.05550461 19.12369125 1.04852481 21.06603205 1.04213047 C23.15514048 1.03474443 25.24423406 1.02531152 27.33333397 1.01583862 C31.69183073 0.99788151 36.05023968 0.99591774 40.4087677 0.99829102 C41.14473543 0.99866017 41.88070316 0.99902933 42.63897294 0.99940968 C44.90579983 1.00072744 47.17262644 1.00228486 49.43945312 1.00390625 C58.82388278 1.01061351 68.20775795 1.00581818 77.59204102 0.94873047 C84.43692196 0.90720149 91.28102194 0.8975475 98.12598592 0.92484093 C101.74631992 0.93806358 105.36503525 0.93531316 108.98518944 0.89379883 C113.02918239 0.84781949 117.06987038 0.872311 121.11401367 0.90234375 C122.90122078 0.86547707 122.90122078 0.86547707 124.72453308 0.8278656 C129.48339221 0.91086644 132.71527148 1.04610709 136.60787392 3.93630981 C138.77702866 6.22284219 140.55215782 8.19830491 142 11 C141.69575787 13.29258728 141.69575787 13.29258728 141 15 C133.60731411 15.98194668 126.34869311 16.16028505 118.89624023 16.17700195 C117.61055145 16.18357315 116.32486267 16.19014435 115.00021362 16.19691467 C110.76968596 16.21776908 106.53915864 16.22829191 102.30859375 16.23828125 C100.84486435 16.24233425 99.38113513 16.24645133 97.91740608 16.25063133 C91.04460005 16.26963336 84.1718045 16.28388086 77.29897732 16.2922433 C69.38880096 16.3020304 61.47890332 16.32840896 53.56882519 16.36874419 C47.43523378 16.39894021 41.30172225 16.41371502 35.16805798 16.41702431 C31.51251567 16.41936854 27.85727287 16.42824858 24.20181084 16.45348549 C20.12581733 16.4811787 16.05044695 16.47692451 11.97436523 16.4699707 C10.77361862 16.48278076 9.57287201 16.49559082 8.33573914 16.50878906 C1.41418349 16.46576412 -3.08188087 15.65695538 -9 12 C-8.67 10.35 -8.34 8.7 -8 7 C-6.824375 6.87625 -6.824375 6.87625 -5.625 6.75 C-2.87716848 6.27676847 -2.87716848 6.27676847 -1.75 4.0625 C-1.5025 3.381875 -1.255 2.70125 -1 2 C-0.67 1.34 -0.34 0.68 0 0 Z " fill="#2B5273" transform="translate(70,330)"/>
<path d="M0 0 C0.97582031 0.54269531 1.95164063 1.08539063 2.95703125 1.64453125 C8.75567372 5.08335135 12.94049187 8.62389464 17 14 C7.97881256 23.92330619 -3.88579569 30.39268057 -17.3828125 31.203125 C-33.47249048 31.40466585 -46.95804175 27.00767963 -59 16 C-60.03468197 14.69339715 -61.04603659 13.36664977 -62 12 C-60.68 12 -59.36 12 -58 12 C-57.76925781 11.42121094 -57.53851563 10.84242188 -57.30078125 10.24609375 C-53.15522322 3.0878479 -43.33338455 -1.50162284 -35.7890625 -4.1484375 C-23.52766498 -6.90409179 -10.996939 -6.37340844 0 0 Z " fill="#2A5273" transform="translate(176,142)"/>
<path d="M0 0 C1.51353979 -0.00067525 3.02707947 -0.00164712 4.5406189 -0.00289917 C7.69570967 -0.00436483 10.85077194 -0.00225766 14.00585938 0.00244141 C18.0314491 0.00814785 22.05697227 0.00484669 26.08255959 -0.00113106 C29.20196019 -0.00475899 32.32134522 -0.00358802 35.44074631 -0.00100327 C36.92457462 -0.00034068 38.40840438 -0.00113881 39.89223099 -0.00348282 C55.36714235 -0.0225769 55.36714235 -0.0225769 61.2109375 1.1328125 C63.2734375 3.2578125 63.2734375 3.2578125 64.2109375 6.1328125 C64.10702578 12.15969241 64.10702578 12.15969241 61.65869141 14.8184967 C58.20108719 16.67504929 54.93807782 16.55940125 51.109375 16.53686523 C50.29591614 16.54372849 49.48245728 16.55059174 48.64434814 16.55766296 C45.95803325 16.57595013 43.27230123 16.5720912 40.5859375 16.56640625 C38.71793426 16.57096678 36.8499327 16.57627197 34.98193359 16.58229065 C31.06796449 16.59122525 27.15419939 16.58879425 23.24023438 16.57885742 C18.22286921 16.5673609 13.20620711 16.58758782 8.18893433 16.61677456 C4.33190433 16.63511309 0.4750436 16.63484891 -3.38201904 16.62913704 C-5.23200467 16.62898357 -7.08200159 16.63504896 -8.9319458 16.64742851 C-11.5175806 16.66229451 -14.10190639 16.65169497 -16.6875 16.63452148 C-17.83469513 16.64902344 -17.83469513 16.64902344 -19.00506592 16.66381836 C-22.46590497 16.61564563 -24.43991757 16.38810152 -27.26806641 14.32020569 C-29.48125938 11.137342 -29.26221635 8.91804329 -28.7890625 5.1328125 C-27.38017645 2.71294151 -26.57685425 1.38023438 -23.86367798 0.52810669 C-23.11282928 0.48289886 -22.36198059 0.43769104 -21.58837891 0.39111328 C-20.69628723 0.33586487 -19.80419556 0.28061646 -18.8850708 0.22369385 C-12.58878137 0.03887029 -6.29824027 -0.00998088 0 0 Z " fill="#2B5274" transform="translate(130.7890625,228.8671875)"/>
<path d="M0 0 C0.64925446 -0.00540298 1.29850891 -0.01080597 1.96743774 -0.01637268 C4.10693374 -0.02884917 6.24508123 -0.01238035 8.38452148 0.00561523 C9.87377493 0.00546024 11.36302878 0.00397114 12.85227966 0.00120544 C15.97022376 -0.00017798 19.08770753 0.01237082 22.20556641 0.03515625 C26.20288783 0.06356599 30.19944594 0.06079642 34.19682407 0.04806614 C37.27063015 0.0411135 40.34425961 0.04889295 43.41804314 0.06132317 C44.89204163 0.06584002 46.36605906 0.06617242 47.84005928 0.06225777 C49.8989772 0.05934883 51.95684036 0.075834 54.015625 0.09765625 C55.18714615 0.10305923 56.3586673 0.10846222 57.56568909 0.11402893 C60.44311523 0.50170898 60.44311523 0.50170898 62.29405212 1.81211853 C64.17989489 4.58507495 64.26977816 7.20830456 64.44311523 10.50170898 C63.88061523 12.81420898 63.88061523 12.81420898 62.44311523 14.50170898 C58.26802106 16.18318075 54.72446181 16.75679479 50.24169922 16.77636719 C48.43468788 16.79066521 48.43468788 16.79066521 46.59117126 16.80525208 C45.30352371 16.80434067 44.01587616 16.80342926 42.68920898 16.80249023 C41.34212615 16.8063819 39.99504453 16.81071754 38.64796448 16.81547546 C35.83297739 16.8229136 33.01811579 16.8226631 30.203125 16.81738281 C26.60292954 16.81157835 23.00324691 16.82855374 19.40313625 16.85172749 C16.62438475 16.86648217 13.84575647 16.86733443 11.06697273 16.86421776 C9.096663 16.86497772 7.12637232 16.87882863 5.15611267 16.89289856 C3.35382957 16.88355537 3.35382957 16.88355537 1.51513672 16.87402344 C0.46067856 16.87465286 -0.5937796 16.87528229 -1.68019104 16.87593079 C-4.99264565 16.44502195 -6.87850803 15.46691281 -9.55688477 13.50170898 C-11.10275352 10.40997147 -10.85047998 7.90741346 -10.55688477 4.50170898 C-7.48190606 0.30831772 -5.05897706 0.00071708 0 0 Z " fill="#2B5274" transform="translate(112.556884765625,268.498291015625)"/>
<path d="M0 0 C1.51176819 -0.01891296 1.51176819 -0.01891296 3.05407715 -0.03820801 C4.13644653 -0.03011108 5.21881592 -0.02201416 6.33398438 -0.01367188 C7.45083618 -0.01749878 8.56768799 -0.02132568 9.71838379 -0.02526855 C12.07870383 -0.02798943 14.43905394 -0.02061607 16.79931641 -0.00390625 C20.41442012 0.01749929 24.0275363 -0.00370366 27.64257812 -0.02929688 C29.93555127 -0.02665363 32.22852317 -0.02152873 34.52148438 -0.01367188 C35.60385376 -0.0217688 36.68622314 -0.02986572 37.8013916 -0.03820801 C38.80923706 -0.02559937 39.81708252 -0.01299072 40.85546875 0 C42.18306213 0.00477356 42.18306213 0.00477356 43.53747559 0.00964355 C46.69333728 0.68027021 47.89397535 2.07292406 49.92773438 4.51757812 C51.15539457 7.23596855 51.00656772 8.26288577 50.11523438 11.14257812 C48.92773438 13.51757812 48.92773438 13.51757812 46.92773438 15.51757812 C44.70205688 15.79846191 44.70205688 15.79846191 41.89892578 15.83984375 C40.32686874 15.86866638 40.32686874 15.86866638 38.72305298 15.89807129 C37.58661346 15.90657104 36.45017395 15.9150708 35.27929688 15.92382812 C34.11522308 15.93522827 32.95114929 15.94662842 31.75180054 15.95837402 C29.28541715 15.97729235 26.81898299 15.99034926 24.35253906 15.99804688 C20.57462617 16.0174656 16.79888625 16.07948999 13.02148438 16.14257812 C10.62826817 16.15563731 8.23503636 16.1661386 5.84179688 16.17382812 C4.1432103 16.21086853 4.1432103 16.21086853 2.41030884 16.24865723 C-0.53969471 16.23186334 -3.19404361 16.16461291 -6.07226562 15.51757812 C-8.91896629 12.53363216 -10.07226562 11.02250392 -10.07226562 6.89257812 C-8.0010237 1.97337856 -5.28499202 0.01900298 0 0 Z " fill="#2C5375" transform="translate(232.072265625,132.482421875)"/>
<path d="M0 0 C4.34791923 3.63818419 8.47197411 7.37769712 12.4375 11.4375 C15.46822872 14.51350187 18.51274515 17.52257852 21.8125 20.3125 C27.75230748 25.37187672 33.1350529 31.05276833 38.61474609 36.59887695 C39.73935206 37.73636614 40.86893408 38.86893408 42 40 C36.96465764 40.0990984 31.92988658 40.1715758 26.89379883 40.21972656 C25.18178414 40.23980505 23.46983772 40.26707392 21.75805664 40.30175781 C19.29295992 40.35044401 16.8287721 40.37300573 14.36328125 40.390625 C13.22080681 40.42159271 13.22080681 40.42159271 12.05525208 40.45318604 C8.31508391 40.45475467 6.21902502 40.14053729 3.03979492 38.10058594 C-0.53894918 34.41518627 -0.1320353 31.25223287 -0.09765625 26.3671875 C-0.0962413 25.61535187 -0.09482635 24.86351624 -0.09336853 24.08889771 C-0.08776465 21.6842249 -0.07521157 19.27964473 -0.0625 16.875 C-0.0574855 15.24609509 -0.0529225 13.61718873 -0.04882812 11.98828125 C-0.03779397 7.99215173 -0.02052679 3.99609158 0 0 Z " fill="#85BEE1" transform="translate(257,49)"/>
<path d="M0 0 C0.70296644 -0.00709439 1.40593288 -0.01418877 2.13020134 -0.02149814 C4.48595721 -0.03910197 6.84006822 -0.02096339 9.19580078 -0.00291443 C10.8844681 -0.00805239 12.57313006 -0.01533274 14.26177979 -0.02459717 C18.84864347 -0.04313526 23.43492701 -0.03015757 28.02176666 -0.01050687 C32.81920565 0.00586115 37.61660736 -0.00293068 42.4140625 -0.00802612 C50.47096032 -0.01254915 58.52762613 0.00333571 66.58447266 0.03126526 C75.90268887 0.06331812 85.2204866 0.06330212 94.53873253 0.04605049 C103.4982262 0.03019323 112.45756628 0.0369138 121.41705322 0.0539875 C125.23199546 0.0608647 129.04681483 0.0598187 132.86175537 0.05244255 C137.35329227 0.04478805 141.84435226 0.05687831 146.3358078 0.08429146 C147.98537531 0.09118519 149.63498727 0.09126268 151.28455353 0.08407593 C153.5343122 0.07540287 155.78259175 0.09129829 158.03222656 0.11352539 C159.29173126 0.11633231 160.55123596 0.11913923 161.84890747 0.12203121 C165.57765926 0.71793094 166.75800695 1.66126285 169.01611328 4.62818909 C169.72493631 7.5360379 169.35583117 9.57072809 169.01611328 12.62818909 C167.20448061 15.30250398 166.13850251 15.58739268 163.01611328 16.62818909 C160.78277977 16.72672294 158.54656522 16.76322297 156.31106567 16.76863098 C155.28345731 16.77308766 155.28345731 16.77308766 154.23508918 16.77763438 C151.93438308 16.78632152 149.63372902 16.78782963 147.33300781 16.7893219 C145.6855254 16.79395002 144.03804406 16.79897467 142.39056396 16.80436707 C137.91121031 16.81749264 133.43187165 16.82393619 128.95250177 16.82837772 C126.1548648 16.83130787 123.35723193 16.83541254 120.55959702 16.8398819 C111.80892046 16.85355652 103.05825327 16.86322365 94.30756676 16.86708379 C84.20133736 16.87156624 74.0952431 16.88912295 63.9890548 16.91808438 C56.18006077 16.93968716 48.37110481 16.9497873 40.56208122 16.95112491 C35.89666227 16.95217384 31.23137035 16.95810042 26.56598282 16.97594452 C22.17799222 16.99240121 17.79022448 16.99459245 13.40221405 16.98580551 C11.79174834 16.98503388 10.18127077 16.98939449 8.57083511 16.99926376 C6.37199974 17.01194872 4.17395786 17.00612597 1.97512817 16.99568176 C0.74474382 16.99714832 -0.48564053 16.99861488 -1.75330925 17.00012589 C-5.28061258 16.594027 -7.16566939 15.75027739 -9.98388672 13.62818909 C-11.41050891 10.77494471 -11.2942254 8.7936436 -10.98388672 5.62818909 C-7.96919733 0.56264912 -5.76778266 0.00268495 0 0 Z M-6.98388672 2.62818909 C-9.29671259 6.09742789 -9.40867258 7.55024484 -8.98388672 11.62818909 C-7.94768434 13.42566218 -7.94768434 13.42566218 -5.98388672 14.62818909 C-2.8496753 15.08064672 -2.8496753 15.08064672 0.81054688 15.00241089 C1.85252259 15.0083725 1.85252259 15.0083725 2.91554832 15.01445454 C5.24875586 15.02409738 7.58136003 15.01224792 9.91455078 15.00050354 C11.58498359 15.00293086 13.25541495 15.00664959 14.92584229 15.01156616 C19.46712084 15.02098703 24.00818432 15.01153972 28.54944611 14.99823403 C33.29663636 14.98693484 38.04381579 14.99102586 42.79101562 14.99298096 C50.76387047 14.99386442 58.73664037 14.98277266 66.70947266 14.96437073 C75.9338672 14.94320231 85.15813728 14.93969292 94.38255119 14.94593269 C103.24750287 14.95162283 112.11241061 14.94598481 120.97735596 14.93475914 C124.75401622 14.93010851 128.53064966 14.9292413 132.30731201 14.93134499 C136.75273503 14.93322546 141.19803095 14.92514262 145.64342499 14.90928459 C147.27729517 14.90503372 148.91117823 14.90419656 150.54505157 14.90697479 C152.77073484 14.91018579 154.99603575 14.90114246 157.22167969 14.8888855 C158.46865631 14.88683263 159.71563293 14.88477976 161.00039673 14.88266468 C164.19521949 14.85745466 164.19521949 14.85745466 167.01611328 12.62818909 C167.45438529 10.7236098 167.45438529 10.7236098 167.32861328 8.62818909 C167.32474609 7.92693909 167.32087891 7.22568909 167.31689453 6.50318909 C167.16524274 4.38653139 167.16524274 4.38653139 165.01611328 2.62818909 C161.94308117 2.31921234 161.94308117 2.31921234 158.25927734 2.36749268 C157.55660862 2.36366713 156.8539399 2.35984158 156.12997818 2.35590011 C153.76382319 2.34554054 151.39790953 2.34956775 149.03173828 2.35353088 C147.34012628 2.34918607 145.64851626 2.3440037 143.95690918 2.33804321 C139.35371228 2.324618 134.75059731 2.32407838 130.14738464 2.32660651 C126.31011921 2.32767371 122.47287053 2.32279938 118.63560867 2.31800109 C109.58664963 2.306894 100.5377321 2.30647543 91.48876953 2.31251526 C82.13995216 2.31855905 72.79128515 2.3062365 63.44249344 2.28494519 C55.42719179 2.2673591 47.41193813 2.26132303 39.39661789 2.26458293 C34.60441758 2.26640052 29.81232453 2.26371239 25.0201416 2.24986839 C20.5156114 2.23734298 16.01131652 2.23918364 11.50679016 2.25227928 C9.84991885 2.2546561 8.19303124 2.25187112 6.53617859 2.24365616 C4.28149111 2.23327974 2.02760675 2.24121458 -0.22705078 2.25396729 C-1.4909967 2.25379954 -2.75494263 2.2536318 -4.05718994 2.25345898 C-5.02299988 2.37711991 -5.98880981 2.50078085 -6.98388672 2.62818909 Z " fill="#0F2848" transform="translate(112.98388671875,189.37181091308594)"/>
<path d="M0 0 C4.93946703 -0.00171056 9.87854621 -0.03678737 14.81782532 -0.07855225 C28.95101657 -0.0119291 28.95101657 -0.0119291 34.38868713 4.68621826 C35.86223142 6.42717323 37.29581264 8.20228304 38.70118713 9.99871826 C41.02305253 12.42769247 43.42919324 14.76918219 45.82618713 17.12371826 C47.03133698 18.33784502 48.23578703 19.55266688 49.43946838 20.76824951 C52.44736605 23.77614718 55.57244365 26.59409903 58.82228088 29.33856201 C61.97736317 32.12631663 64.88370385 35.1619323 67.81837463 38.17840576 C69.57872052 40.06255724 69.57872052 40.06255724 71.70118713 40.99871826 C71.70118713 41.65871826 71.70118713 42.31871826 71.70118713 42.99871826 C72.28223206 43.25306641 72.86327698 43.50741455 73.46192932 43.76947021 C75.94298356 45.13145322 77.55636817 46.64186266 79.52931213 48.66668701 C80.24731995 49.39565186 80.96532776 50.1246167 81.70509338 50.87567139 C82.44630432 51.63815186 83.18751526 52.40063232 83.95118713 53.18621826 C88.83455438 58.18668224 93.74648409 63.04030369 99.06349182 67.58197021 C102.66944597 70.70143234 102.66944597 70.70143234 102.94169617 73.25131226 C102.93725494 74.18841034 102.93281372 75.12550842 102.92823792 76.09100342 C102.92808685 77.15195221 102.92793579 78.212901 102.92778015 79.30599976 C102.91745758 80.45498749 102.90713501 81.60397522 102.89649963 82.78778076 C102.89225479 84.54812149 102.89225479 84.54812149 102.88792419 86.34402466 C102.87670069 90.10402488 102.85159206 93.86378965 102.82618713 97.62371826 C102.81616015 100.16798566 102.80703381 102.71225679 102.79884338 105.25653076 C102.77675427 111.50400736 102.74325537 117.751346 102.70118713 123.99871826 C100.88300344 120.87324266 100.43687402 118.55405264 100.38233948 114.95477295 C100.35253494 113.45366974 100.35253494 113.45366974 100.3221283 111.92224121 C100.30480148 110.31267548 100.30480148 110.31267548 100.28712463 108.67059326 C100.25807541 107.01437958 100.25807541 107.01437958 100.22843933 105.32470703 C100.16867822 101.79945593 100.1222715 98.27417211 100.07618713 94.74871826 C100.03800421 92.35807905 99.9989523 89.96745355 99.95899963 87.57684326 C99.86297947 81.71759 99.77792165 75.85825411 99.70118713 69.99871826 C99.08201416 69.70518967 98.46284119 69.41166107 97.8249054 69.10923767 C95.27964304 67.77828747 93.65930641 66.16647936 91.65431213 64.11199951 C90.89118713 63.33791748 90.12806213 62.56383545 89.34181213 61.76629639 C88.55290588 60.95612061 87.76399963 60.14594482 86.95118713 59.31121826 C81.92052625 54.16736751 76.86927372 49.16660329 71.40724182 44.47991943 C69.40599758 42.74243392 67.54164663 40.90490845 65.70118713 38.99871826 C63.26218631 36.52212205 60.79376292 34.17840969 58.13868713 31.93621826 C53.23211331 27.72919556 48.76396827 23.08676092 44.21974182 18.4977417 C40.31451825 14.56888592 36.36158746 10.76607483 32.11915588 7.19793701 C30.70118713 5.99871826 30.70118713 5.99871826 28.70118713 3.99871826 C20.05237851 2.00430398 10.46725441 2.87574813 1.62843323 2.91351318 C-0.08417688 2.91711483 -1.79678787 2.92031845 -3.50939941 2.92315674 C-8.13525725 2.9324761 -12.76106241 2.94879784 -17.38689089 2.96752715 C-20.28056768 2.97920797 -23.17424668 2.98986156 -26.06792831 3.00026894 C-35.13310353 3.03344434 -44.19824196 3.07143697 -53.26337016 3.11563414 C-63.70846783 3.16642588 -74.15344995 3.20063387 -84.59865057 3.22081488 C-92.6898627 3.23750408 -100.78092789 3.26938564 -108.87204111 3.31266099 C-113.69784427 3.33811195 -118.5234647 3.35708579 -123.34933853 3.36003685 C-127.88531149 3.36319446 -132.42080808 3.3852295 -136.95663261 3.42159271 C-138.61741226 3.43168133 -140.27824898 3.4350472 -141.93905449 3.4310627 C-151.88326865 3.41178149 -159.42660044 3.45132 -167.11131287 10.62371826 C-168.19412537 11.79934326 -168.19412537 11.79934326 -169.29881287 12.99871826 C-170.28881287 13.65871826 -171.27881287 14.31871826 -172.29881287 14.99871826 C-170.92639173 9.81401619 -167.63406041 6.88888329 -163.29881287 3.99871826 C-157.13872276 0.70516429 -151.81639482 0.55695605 -144.90794373 0.56634521 C-143.21306572 0.55105774 -143.21306572 0.55105774 -141.48394775 0.53546143 C-137.74380018 0.50526651 -134.00391038 0.49603651 -130.26365662 0.48699951 C-127.62941674 0.47011641 -124.99518475 0.45196142 -122.36096191 0.43260193 C-116.10953279 0.38890252 -109.85812892 0.36041931 -103.60659367 0.33727854 C-96.643088 0.31072094 -89.67973316 0.26649308 -82.71632981 0.22099411 C-55.14439832 0.04242625 -27.57249921 -0.04484434 0 0 Z " fill="#112E4C" transform="translate(224.29881286621094,20.00128173828125)"/>
<path d="M0 0 C0.33 0 0.66 0 1 0 C1.00238835 0.93760225 1.00477671 1.87520451 1.00723743 2.84121895 C1.06602128 25.6508328 1.14189722 48.46034094 1.23571491 71.26983833 C1.28068832 82.30032522 1.32009945 93.3307797 1.34643555 104.36132812 C1.36940307 113.97509269 1.40278722 123.58875486 1.44870156 133.20243824 C1.47265051 138.29322957 1.49136835 143.38391938 1.49761391 148.47476578 C1.50365715 153.26659242 1.52362963 158.05815925 1.55427551 162.84988976 C1.5630679 164.60826375 1.56677583 166.36667167 1.56500816 168.12506676 C1.56335571 170.52737324 1.58005164 172.92888744 1.60127258 175.33108521 C1.59642501 176.02565169 1.59157743 176.72021818 1.58658296 177.43583214 C1.66717614 182.97039627 3.0611899 187.0611899 7 191 C9.42487851 191.31485927 9.42487851 191.31485927 12.28970337 191.2784729 C13.9724511 191.29521812 13.9724511 191.29521812 15.68919373 191.31230164 C16.9256514 191.31446182 18.16210907 191.31662201 19.43603516 191.31884766 C20.73355209 191.32889328 22.03106903 191.3389389 23.36790466 191.34928894 C26.93170952 191.37665534 30.49547471 191.39175788 34.05935717 191.40471697 C37.78167315 191.42031859 41.50390776 191.4471182 45.22616577 191.4727478 C52.27738773 191.51958834 59.3286249 191.55630683 66.37992322 191.58942068 C74.40646923 191.62760489 82.43293363 191.67702467 90.45941091 191.72740483 C106.97288205 191.83080311 123.4863984 191.92003772 140 192 C137.4243939 194.5756061 136.43841611 194.25296174 132.85783386 194.26069641 C131.76847031 194.26778122 130.67910675 194.27486603 129.55673218 194.28216553 C128.35618195 194.27968811 127.15563171 194.27721069 125.91870117 194.2746582 C124.65847641 194.27976913 123.39825165 194.28488007 122.09983826 194.29014587 C118.63689215 194.30356561 115.17405499 194.30411105 111.71108794 194.30158257 C108.82101316 194.30051442 105.93096056 194.30539247 103.04089051 194.310188 C96.22117258 194.32129443 89.40150972 194.32171486 82.58178711 194.31567383 C75.54719366 194.30963815 68.51280043 194.32193199 61.47824115 194.3432439 C55.43994311 194.36086469 49.40170877 194.36686033 43.36338598 194.36360615 C39.75653191 194.36179319 36.14982052 194.36443022 32.54298973 194.37832069 C28.51835541 194.39323895 24.49412761 194.38392476 20.46948242 194.37231445 C18.67776611 194.38378006 18.67776611 194.38378006 16.84985352 194.39547729 C15.75203049 194.38846298 14.65420746 194.38144867 13.52311707 194.3742218 C12.57165896 194.37438954 11.62020086 194.37455729 10.6399107 194.37473011 C6.48337885 193.78471862 3.83839711 192.03097775 1.21452332 188.80439758 C-0.33941712 185.21626819 -0.43993682 181.97198635 -0.43237305 178.12963867 C-0.44255903 177.34579992 -0.45274502 176.56196117 -0.46323967 175.75436974 C-0.49352573 173.14216419 -0.50268048 170.53032764 -0.51171875 167.91796875 C-0.52872864 166.05808888 -0.54698039 164.19822001 -0.56639099 162.33836365 C-0.61473764 157.32829687 -0.64436714 152.31828037 -0.66996002 147.30805206 C-0.69335766 143.14535918 -0.72715227 138.98277832 -0.76107025 134.82015991 C-0.86355999 122.20544501 -0.9326566 109.59069055 -0.98709869 96.97568512 C-0.99955913 94.10168699 -1.01272859 91.22769292 -1.02606201 88.35369873 C-1.07528078 77.53159127 -1.10906123 66.70954572 -1.12204361 55.88733292 C-1.12496359 53.65286278 -1.12912144 51.41839735 -1.13339233 49.18392944 C-1.16019722 32.76454292 -0.94971477 16.3961007 0 0 Z " fill="#0E304F" transform="translate(65,138)"/>
<path d="M0 0 C0 0.33 0 0.66 0 1 C-1.02154175 1.029729 -1.02154175 1.029729 -2.0637207 1.06005859 C-5.14703917 1.15526983 -8.22967649 1.26496466 -11.3125 1.375 C-12.9202832 1.42140625 -12.9202832 1.42140625 -14.56054688 1.46875 C-16.10258789 1.52675781 -16.10258789 1.52675781 -17.67578125 1.5859375 C-19.0975769 1.63306885 -19.0975769 1.63306885 -20.5480957 1.68115234 C-23.2530269 1.8489051 -23.2530269 1.8489051 -26 4 C-26.33338596 7.54187831 -26.33338596 7.54187831 -26 11 C-24.21142938 12.78857062 -21.79876866 12.11990579 -19.41790771 12.12442017 C-18.61733948 12.12082489 -17.81677124 12.11722961 -16.99194336 12.11352539 C-16.15299026 12.11367142 -15.31403717 12.11381744 -14.44966125 12.1139679 C-11.66302956 12.1132685 -8.87646384 12.10547485 -6.08984375 12.09765625 C-4.16313209 12.09579217 -2.23641995 12.09436822 -0.30970764 12.09336853 C4.77187397 12.08954259 9.8534272 12.07971166 14.93499756 12.06866455 C20.11616634 12.05845206 25.29733969 12.05387126 30.47851562 12.04882812 C40.65235625 12.03808946 50.82617577 12.02101213 61 12 C61.26932521 7.34947128 61.26932521 7.34947128 60 3 C48.1566177 2.04018899 36.38614368 1.91733374 24.50708008 2.03710938 C16.94512594 2.09060528 9.52336118 1.77401902 2 1 C2 0.67 2 0.34 2 0 C12.37276193 -0.84443996 22.66851301 -1.15849425 33.07299805 -1.13037109 C35.45953558 -1.12494994 37.84588954 -1.13038778 40.23242188 -1.13671875 C41.77864624 -1.13605876 43.32487049 -1.13477924 44.87109375 -1.1328125 C45.5702037 -1.13483673 46.26931366 -1.13686096 46.98960876 -1.13894653 C51.75752044 -1.11657254 56.30757081 -0.80933409 61 0 C63.0625 2.125 63.0625 2.125 64 5 C63.89608828 11.02687991 63.89608828 11.02687991 61.44775391 13.6856842 C57.99014969 15.54223679 54.72714032 15.42658875 50.8984375 15.40405273 C50.08497864 15.41091599 49.27151978 15.41777924 48.43341064 15.42485046 C45.74709575 15.44313763 43.06136373 15.4392787 40.375 15.43359375 C38.50699676 15.43815428 36.6389952 15.44345947 34.77099609 15.44947815 C30.85702699 15.45841275 26.94326189 15.45598175 23.02929688 15.44604492 C18.01193171 15.4345484 12.99526961 15.45477532 7.97799683 15.48396206 C4.12096683 15.50230059 0.2641061 15.50203641 -3.59295654 15.49632454 C-5.44294217 15.49617107 -7.29293909 15.50223646 -9.1428833 15.51461601 C-11.7285181 15.52948201 -14.31284389 15.51888247 -16.8984375 15.50170898 C-18.04563263 15.51621094 -18.04563263 15.51621094 -19.21600342 15.53100586 C-22.67684247 15.48283313 -24.65085507 15.25528902 -27.47900391 13.18739319 C-29.69219688 10.0045295 -29.47315385 7.78523079 -29 4 C-27.5925547 1.58909832 -26.76570608 0.25731467 -24.08203125 -0.64453125 C-16.00780975 -1.24210702 -8.05352861 -0.64947811 0 0 Z " fill="#173450" transform="translate(131,230)"/>
<path d="M0 0 C0.64925446 -0.00540298 1.29850891 -0.01080597 1.96743774 -0.01637268 C4.10693374 -0.02884917 6.24508123 -0.01238035 8.38452148 0.00561523 C9.87377493 0.00546024 11.36302878 0.00397114 12.85227966 0.00120544 C15.97022376 -0.00017798 19.08770753 0.01237082 22.20556641 0.03515625 C26.20288783 0.06356599 30.19944594 0.06079642 34.19682407 0.04806614 C37.27063015 0.0411135 40.34425961 0.04889295 43.41804314 0.06132317 C44.89204163 0.06584002 46.36605906 0.06617242 47.84005928 0.06225777 C49.8989772 0.05934883 51.95684036 0.075834 54.015625 0.09765625 C55.18714615 0.10305923 56.3586673 0.10846222 57.56568909 0.11402893 C60.44311523 0.50170898 60.44311523 0.50170898 62.29405212 1.81211853 C64.17989489 4.58507495 64.26977816 7.20830456 64.44311523 10.50170898 C63.88061523 12.81420898 63.88061523 12.81420898 62.44311523 14.50170898 C58.26802106 16.18318075 54.72446181 16.75679479 50.24169922 16.77636719 C48.43468788 16.79066521 48.43468788 16.79066521 46.59117126 16.80525208 C45.30352371 16.80434067 44.01587616 16.80342926 42.68920898 16.80249023 C41.34212615 16.8063819 39.99504453 16.81071754 38.64796448 16.81547546 C35.83297739 16.8229136 33.01811579 16.8226631 30.203125 16.81738281 C26.60292954 16.81157835 23.00324691 16.82855374 19.40313625 16.85172749 C16.62438475 16.86648217 13.84575647 16.86733443 11.06697273 16.86421776 C9.096663 16.86497772 7.12637232 16.87882863 5.15611267 16.89289856 C3.35382957 16.88355537 3.35382957 16.88355537 1.51513672 16.87402344 C0.46067856 16.87465286 -0.5937796 16.87528229 -1.68019104 16.87593079 C-4.99264565 16.44502195 -6.87850803 15.46691281 -9.55688477 13.50170898 C-11.10275352 10.40997147 -10.85047998 7.90741346 -10.55688477 4.50170898 C-7.48190606 0.30831772 -5.05897706 0.00071708 0 0 Z M-8.55688477 4.50170898 C-9.08024742 9.07807577 -9.08024742 9.07807577 -7.42185974 13.20010376 C-4.72772862 15.08039448 -2.67192633 14.88291908 0.59521484 14.88989258 C1.86340561 14.89934906 3.13159637 14.90880554 4.43821716 14.91854858 C5.82396761 14.91317831 7.20971521 14.90702522 8.59545898 14.90014648 C10.0164861 14.90216758 11.4375122 14.90507931 12.85853577 14.90884399 C15.8369433 14.91326717 18.81508089 14.90683779 21.79345703 14.89282227 C25.60796872 14.87574555 29.42184647 14.88556139 33.2363348 14.90353966 C36.17119606 14.91439119 39.10590757 14.91092469 42.04077339 14.90315628 C43.44696694 14.90115723 44.85317415 14.9036032 46.25935173 14.91059494 C48.22677214 14.91822925 50.19424029 14.90452632 52.16162109 14.88989258 C53.28064316 14.8875058 54.39966522 14.88511902 55.55259705 14.88265991 C58.77697673 14.45770828 60.17834213 13.81146859 62.44311523 11.50170898 C62.95332252 7.42005072 62.75673326 5.97213602 60.44311523 2.50170898 C57.54796618 2.04748347 57.54796618 2.04748347 54.09741211 2.12939453 C53.44684341 2.12574387 52.79627472 2.1220932 52.12599182 2.11833191 C49.97101912 2.11021197 47.81679502 2.12384746 45.66186523 2.13842773 C44.1673584 2.13894617 42.67285088 2.1384291 41.17834473 2.13691711 C38.0443302 2.1370069 34.91057257 2.14744929 31.77661133 2.16552734 C27.75459761 2.18821495 23.73295945 2.1887594 19.71089935 2.1820097 C16.62429452 2.17867197 13.53777567 2.18529605 10.45118713 2.19513893 C8.96798655 2.19899463 7.4847764 2.20013762 6.00157166 2.19855309 C3.93046771 2.19818319 1.8598495 2.21078056 -0.21118164 2.22705078 C-1.39095581 2.23165817 -2.57072998 2.23626556 -3.78625488 2.24101257 C-6.69825216 2.21790561 -6.69825216 2.21790561 -8.55688477 4.50170898 Z " fill="#122D49" transform="translate(112.556884765625,268.498291015625)"/>
<path d="M0 0 C0.33 0 0.66 0 1 0 C1.01030746 1.1936467 1.02061493 2.3872934 1.03123474 3.61711121 C1.12969068 14.95676011 1.23248132 26.29636286 1.33933926 37.63593578 C1.39411965 43.46341005 1.44745906 49.29088955 1.49731445 55.1184082 C1.5456311 60.7594954 1.59798199 66.40053297 1.65294075 72.04155922 C1.67306452 74.17611744 1.69182005 76.31068909 1.70907402 78.44527245 C1.75724146 84.34355832 1.83412933 90.24006762 1.95191574 96.13738632 C1.98464997 98.08616265 2.00533141 100.03517033 2.01536942 101.98419571 C2.03128464 104.8803104 2.08430536 107.7737068 2.14477539 110.66918945 C2.14091292 111.53770885 2.13705046 112.40622824 2.13307095 113.3010664 C2.25859545 117.4935073 2.55234545 120.17413516 5.67845154 123.14567566 C9.25980208 125.59840932 9.25980208 125.59840932 15 124 C15.33 95.62 15.66 67.24 16 38 C16.33 38 16.66 38 17 38 C17.20013561 49.01328777 17.38386404 60.02671489 17.54658794 71.04062271 C17.62266233 76.15469951 17.70440873 81.26855505 17.79907227 86.38232422 C17.89020175 91.31641486 17.96649126 96.25053136 18.03244972 101.18502045 C18.06024389 103.06857628 18.09340558 104.95206073 18.13199425 106.83542633 C18.18508979 109.47135189 18.21917814 112.10688465 18.2487793 114.74316406 C18.26891586 115.52359573 18.28905243 116.3040274 18.30979919 117.10810852 C18.32903371 120.33930338 18.2171136 122.60623529 16.64070129 125.465271 C14.48213654 127.48441485 12.92050321 127.78096226 10 128 C9.01 127.67 8.02 127.34 7 127 C7 126.34 7 125.68 7 125 C6.401875 124.71125 5.80375 124.4225 5.1875 124.125 C3 123 3 123 0 121 C-0.39872742 118.88540649 -0.39872742 118.88540649 -0.43237305 116.21728516 C-0.45215714 115.2077327 -0.47194122 114.19818024 -0.49232483 113.15803528 C-0.49872482 112.04627426 -0.50512482 110.93451324 -0.51171875 109.7890625 C-0.52976059 108.62150925 -0.54780243 107.45395599 -0.56639099 106.25102234 C-0.61225046 103.04447391 -0.64448239 99.8381469 -0.66996002 96.63138199 C-0.69333296 93.95777304 -0.72721452 91.28430797 -0.76107025 88.61081409 C-0.8767982 79.40743187 -0.94550038 70.2039255 -1 61 C-1.004338 60.2805999 -1.00867599 59.5611998 -1.01314545 58.81999969 C-1.07144995 48.98437777 -1.1085562 39.14882717 -1.12204361 29.31304169 C-1.12500642 27.30815907 -1.12916966 25.30328119 -1.13339233 23.29840088 C-1.13911761 19.56999766 -1.13745411 15.84168433 -1.1328125 12.11328125 C-1.13478134 10.99636398 -1.13675018 9.87944672 -1.13877869 8.72868347 C-1.13413353 7.21423393 -1.13413353 7.21423393 -1.12939453 5.66918945 C-1.12859894 4.7864888 -1.12780334 3.90378815 -1.12698364 2.99433899 C-1 1 -1 1 0 0 Z " fill="#061D38" transform="translate(310,106)"/>
<path d="M0 0 C3.00231595 2.1683393 3.91117231 3.75689265 5.1875 7.25 C4.9053686 12.89262798 1.9251089 15.18449274 -2 19 C-2.83144531 19.83144531 -3.66289062 20.66289062 -4.51953125 21.51953125 C-6.24349745 23.24349745 -7.9726012 24.96234279 -9.70703125 26.67578125 C-12.3277457 29.33221242 -14.64605296 32.10800792 -17 35 C-19.59285424 37.71632349 -21.87354781 39.91569854 -25 42 C-25.33 42.99 -25.66 43.98 -26 45 C-31.46511628 50 -31.46511628 50 -34 50 C-34.28875 50.639375 -34.5775 51.27875 -34.875 51.9375 C-36 54 -36 54 -38 55 C-37.42652538 51.3403248 -36.0540468 49.71110306 -33.4140625 47.16870117 C-32.65657715 46.43080856 -31.8990918 45.69291595 -31.11865234 44.93266296 C-30.29574707 44.14406387 -29.4728418 43.35546478 -28.625 42.54296875 C-26.90063051 40.8565401 -25.17668525 39.16967758 -23.453125 37.48242188 C-20.72641231 34.8301679 -17.9952187 32.18289353 -15.25585938 29.54370117 C-12.61566685 26.99416414 -9.9944754 24.42626255 -7.375 21.85546875 C-6.14064209 20.68167915 -6.14064209 20.68167915 -4.88134766 19.48417664 C-0.16701748 15.00365654 -0.16701748 15.00365654 2.12109375 9.1027832 C2.25512561 5.94788025 2.25512561 5.94788025 0.4375 3.5 C-1.89590442 1.78741893 -1.89590442 1.78741893 -4.62353516 1.90795898 C-9.78836215 3.5784052 -12.74213777 7.12699544 -16.4609375 10.97265625 C-17.25150543 11.77029892 -18.04207336 12.56794159 -18.8565979 13.38975525 C-21.37472188 15.93582932 -23.87489027 18.49874674 -26.375 21.0625 C-28.08087566 22.79345731 -29.78789414 24.52328917 -31.49609375 26.25195312 C-35.67740284 30.48834014 -39.84410845 34.73868357 -44 39 C-49.75 35.375 -49.75 35.375 -52 32 C-49.06296616 32.62936439 -46.66211372 33.62420173 -44 35 C-43.58514847 34.57848663 -43.17029694 34.15697327 -42.74287415 33.72268677 C-38.42047079 29.33387132 -34.08751041 24.95568494 -29.74829102 20.58349609 C-28.13065275 18.95077911 -26.51571827 17.31537867 -24.90356445 15.67724609 C-22.58471367 13.32197357 -20.25628462 10.97654854 -17.92578125 8.6328125 C-17.20787918 7.89942657 -16.48997711 7.16604065 -15.75032043 6.41043091 C-15.06999252 5.7298764 -14.38966461 5.0493219 -13.6887207 4.34814453 C-13.09581741 3.74857941 -12.50291412 3.14901428 -11.89204407 2.53128052 C-8.06912991 -0.56270343 -4.68583868 -1.68209594 0 0 Z " fill="#2B9D80" transform="translate(299,256)"/>
<path d="M0 0 C1.51188148 -0.01913956 1.51188148 -0.01913956 3.05430603 -0.03866577 C4.1418367 -0.04089142 5.22936737 -0.04311707 6.34985352 -0.04541016 C8.02725365 -0.05539536 8.02725365 -0.05539536 9.73854065 -0.06558228 C12.10481113 -0.07571275 14.4711102 -0.08039917 16.83740234 -0.08007812 C20.46117103 -0.08445143 24.08372227 -0.12076907 27.70727539 -0.15869141 C30.00479726 -0.16455935 32.30232492 -0.16852889 34.59985352 -0.17041016 C35.68535995 -0.18478119 36.77086639 -0.19915222 37.88926697 -0.21395874 C39.40587669 -0.20472885 39.40587669 -0.20472885 40.953125 -0.1953125 C41.84120346 -0.19816254 42.72928192 -0.20101257 43.64427185 -0.20394897 C46.81291891 0.44971345 48.00424834 1.8382387 50.04125977 4.29052734 C51.26891996 7.00891777 51.12009311 8.03583499 50.22875977 10.91552734 C49.04125977 13.29052734 49.04125977 13.29052734 47.04125977 15.29052734 C44.80212402 15.54449463 44.80212402 15.54449463 41.98071289 15.54931641 C40.39897278 15.55877289 40.39897278 15.55877289 38.78527832 15.56842041 C37.6425647 15.56437195 36.49985107 15.56032349 35.32250977 15.55615234 C33.56928406 15.55902252 33.56928406 15.55902252 31.78063965 15.56195068 C29.30582464 15.5633136 26.8310025 15.55960976 24.35620117 15.55126953 C20.55704772 15.5405718 16.75836717 15.55116152 12.95922852 15.56396484 C10.55948788 15.56264327 8.15974755 15.56008092 5.76000977 15.55615234 C4.04593933 15.56222504 4.04593933 15.56222504 2.29724121 15.56842041 C1.2427478 15.56211609 0.18825439 15.55581177 -0.89819336 15.54931641 C-1.82925903 15.54772522 -2.76032471 15.54613403 -3.71960449 15.54449463 C-5.95874023 15.29052734 -5.95874023 15.29052734 -7.95874023 13.29052734 C-7.62874023 12.30052734 -7.29874023 11.31052734 -6.95874023 10.29052734 C-6.62874023 10.95052734 -6.29874023 11.61052734 -5.95874023 12.29052734 C11.53125977 12.29052734 29.02125977 12.29052734 47.04125977 12.29052734 C48.70240286 6.54130576 48.70240286 6.54130576 46.04125977 3.29052734 C43.78308855 2.85259208 43.78308855 2.85259208 41.13256836 2.94995117 C40.11166107 2.95017776 39.09075378 2.95040436 38.03890991 2.95063782 C36.93366974 2.96612167 35.82842957 2.98160553 34.68969727 2.99755859 C32.99594467 3.00392586 32.99594467 3.00392586 31.26797485 3.01042175 C27.65049704 3.02725603 24.03357007 3.06491759 20.41625977 3.10302734 C17.96835113 3.11806801 15.52043378 3.13175748 13.07250977 3.14404297 C7.06190417 3.17717507 1.05162131 3.22742155 -4.95874023 3.29052734 C-5.94874023 5.27052734 -6.93874023 7.25052734 -7.95874023 9.29052734 C-8.61874023 8.96052734 -9.27874023 8.63052734 -9.95874023 8.29052734 C-8.21569093 2.12281441 -6.5076266 0.05591398 0 0 Z " fill="#183854" transform="translate(231.958740234375,132.70947265625)"/>
<path d="M0 0 C0.66 0 1.32 0 2 0 C1.84144531 1.11117188 1.68289062 2.22234375 1.51953125 3.3671875 C-1.00968504 23.80756782 1.76816924 41.30755088 13.73828125 58.49609375 C21.31919893 67.86266656 32.67203297 74.26751317 44 78 C44 78.66 44 79.32 44 80 C29.60399292 77.79350919 17.44724971 67.36639561 9.0625 56 C1.45046152 44.25782871 -2.22983435 32.25453669 -2.3125 18.3125 C-2.31805908 17.52875 -2.32361816 16.745 -2.3293457 15.9375 C-2.26148824 10.41610602 -1.38729451 5.33874127 0 0 Z " fill="#2A997C" transform="translate(203,267)"/>
<path d="M0 0 C1.41597973 0.09688026 2.83199546 0.1932358 4.24804688 0.2890625 C7.64496442 0.52004488 11.04135112 0.75794674 14.4375 1 C14.4375 1.33 14.4375 1.66 14.4375 2 C-20.9083494 2.15154883 -56.22458211 1.74967803 -91.5625 1 C-91.5625 0.67 -91.5625 0.34 -91.5625 0 C-84.29387311 -0.13218873 -77.02521768 -0.26268011 -69.75652409 -0.39115143 C-66.37941588 -0.45089071 -63.00231908 -0.51116056 -59.62524414 -0.57275391 C-18.46937709 -1.3203489 -18.46937709 -1.3203489 0 0 Z " fill="#1C3F5B" transform="translate(223.5625,21)"/>
<path d="M0 0 C0.66 0 1.32 0 2 0 C6.99116391 17.26027999 4.41635625 35.00349747 -4.0546875 50.671875 C-9.2366699 59.53743524 -16.88917872 69.62972624 -27 73 C-25.84666821 69.54000462 -24.82042721 69.20861911 -21.87890625 67.3515625 C-9.51979566 58.46122515 -2.29791478 44.63263989 1 30 C1.25425509 26.16237106 1.23426289 22.34440172 1.1875 18.5 C1.18685547 17.49324219 1.18621094 16.48648437 1.18554688 15.44921875 C1.15458007 10.1986257 0.90819818 5.17309683 0 0 Z " fill="#2C9A7F" transform="translate(325,267)"/>
<path d="M0 0 C18.6153876 0.90912358 35.93583674 7.06716276 48.890625 21.0390625 C54.61890332 27.75120541 58.33397381 35.0493057 62 43 C61.01 43 60.02 43 59 43 C58.59910156 42.10539062 58.19820313 41.21078125 57.78515625 40.2890625 C50.42752664 24.41508676 39.32857726 13.30210929 22.7734375 6.9609375 C16.23152743 4.69430387 10.24938686 3.72977086 3.3203125 3.34375 C1 3 1 3 -1 1 C-0.67 0.67 -0.34 0.34 0 0 Z " fill="#2B9A7D" transform="translate(264,221)"/>
<path d="M0 0 C-0.33 0.66 -0.66 1.32 -1 2 C-2.64941613 2.3099289 -4.30239477 2.6069923 -5.96508789 2.83520508 C-18.9539114 4.6298429 -30.4732012 9.92685829 -40 19 C-40.66 19 -41.32 19 -42 19 C-42.26039063 19.56332031 -42.52078125 20.12664062 -42.7890625 20.70703125 C-44.11900184 23.22533574 -45.68500996 25.39605062 -47.375 27.6875 C-50.6215975 32.25302773 -52.92286699 36.81833485 -55 42 C-55.33 42.66 -55.66 43.32 -56 44 C-56.66 44 -57.32 44 -58 44 C-53.59954458 28.21013055 -43.516166 16.82884953 -30 8 C-20.15239645 2.60562509 -11.20865743 -0.40758754 0 0 Z " fill="#289B7C" transform="translate(262,222)"/>
<path d="M0 0 C0 2.66666667 0 5.33333333 0 8 C-9.24 8 -18.48 8 -28 8 C-27.01 6.35 -26.02 4.7 -25 3 C-21.41784734 2.10446184 -18.30729115 1.98861885 -14.625 2.125 C-10.60708957 1.98645136 -7.63421655 0.99776028 -3.91796875 -0.44140625 C-2 -1 -2 -1 0 0 Z " fill="#89C1E3" transform="translate(168,130)"/>
<path d="M0 0 C3.64515103 0.83098271 5.48773668 2.78595164 8.0390625 5.46484375 C8.0390625 6.12484375 8.0390625 6.78484375 8.0390625 7.46484375 C5.77446973 6.41342568 4.03178861 5.45829725 2.1640625 3.77734375 C0.01152742 2.17429294 0.01152742 2.17429294 -3.0859375 2.58984375 C-6.25799576 3.22306332 -6.25799576 3.22306332 -7.9609375 6.46484375 C-7.64466653 10.00707861 -7.08545659 13.09128649 -5.9609375 16.46484375 C-4.63813481 17.15216847 -3.30292775 17.81577951 -1.9609375 18.46484375 C-0.6139178 19.70820702 0.68254879 21.00751957 1.9375 22.34375 C3.02804688 23.47780273 3.02804688 23.47780273 4.140625 24.63476562 C5.65450462 26.22798086 7.1623529 27.8269492 8.6640625 29.43164062 C12.91824889 33.91824827 12.91824889 33.91824827 18.390625 36.5546875 C21.14681016 36.58664008 21.14681016 36.58664008 24.0390625 35.46484375 C24.3690625 36.12484375 24.6990625 36.78484375 25.0390625 37.46484375 C18.78323346 39.79544673 18.78323346 39.79544673 15.7265625 38.4375 C12.1981255 35.84758622 9.26224606 32.856768 6.2265625 29.71484375 C1.81608706 25.2108967 -2.5882284 20.85158803 -7.5078125 16.89453125 C-9.23109805 15.19904063 -10.08952594 13.71670928 -10.9609375 11.46484375 C-10.82564268 7.67658872 -10.45334729 5.23300302 -8.3984375 2.02734375 C-5.57610613 0.21815698 -3.34570271 -0.15663402 0 0 Z " fill="#2D9B80" transform="translate(234.9609375,275.53515625)"/>
<path d="M0 0 C1.32 0 2.64 0 4 0 C4.78375 1.010625 5.5675 2.02125 6.375 3.0625 C12.24388849 10.44739293 23.97237752 15.19247568 33.14379883 16.24633789 C35.40836897 16.41450995 37.668664 16.53168027 39.9375 16.625 C40.71673828 16.66367188 41.49597656 16.70234375 42.29882812 16.7421875 C44.19887379 16.83544127 46.09940278 16.91875962 48 17 C48 17.66 48 18.32 48 19 C30.60068935 19.63398298 16.20673444 16.07241369 3 4 C1.96531803 2.69339715 0.95396341 1.36664977 0 0 Z " fill="#0D2641" transform="translate(114,154)"/>
<path d="M0 0 C1.36257935 0.01643555 1.36257935 0.01643555 2.75268555 0.03320312 C11.57728602 0.17428632 20.38362201 0.64802544 29.1875 1.25 C29.1875 1.58 29.1875 1.91 29.1875 2.25 C27.47820312 2.26401855 27.47820312 2.26401855 25.734375 2.27832031 C21.47731472 2.31841055 17.22096273 2.38422095 12.96435547 2.45751953 C11.12753447 2.48561931 9.29059503 2.50688818 7.45361328 2.52099609 C4.80179686 2.54257897 2.15138815 2.58930499 -0.5 2.640625 C-1.31178711 2.64185364 -2.12357422 2.64308228 -2.95996094 2.64434814 C-10.14503808 2.82594125 -15.36035984 4.96133585 -20.625 9.875 C-21.7078125 11.050625 -21.7078125 11.050625 -22.8125 12.25 C-23.8025 12.91 -24.7925 13.57 -25.8125 14.25 C-24.44007886 9.06529793 -21.14774755 6.14016503 -16.8125 3.25 C-11.06383068 0.18883359 -6.44841671 -0.15735114 0 0 Z " fill="#0E2945" transform="translate(77.8125,20.75)"/>
<path d="M0 0 C0.88068649 0.00015106 1.76137299 0.00030212 2.66874695 0.00045776 C3.61570938 0.01078033 4.56267181 0.02110291 5.53833008 0.03173828 C6.51071121 0.03456818 7.48309235 0.03739807 8.48493958 0.04031372 C11.59270499 0.05151479 14.70018292 0.07661931 17.80786133 0.10205078 C19.91397696 0.11208067 22.02009711 0.12120651 24.1262207 0.12939453 C29.29104513 0.1514539 34.45565447 0.18598332 39.62036133 0.22705078 C39.62036133 1.21705078 39.62036133 2.20705078 39.62036133 3.22705078 C16.35536133 2.73205078 16.35536133 2.73205078 -7.37963867 2.22705078 C-4.24433638 0.13684925 -3.56132097 -0.02040872 0 0 Z " fill="#113757" transform="translate(270.379638671875,103.77294921875)"/>
<path d="M0 0 C11.42494767 1.46987631 21.45903162 8.99862136 28.51171875 17.91015625 C29.625 19.5625 29.625 19.5625 31 22 C27.80178248 20.63423758 26.17991367 19.21801878 24.125 16.4375 C21.90453474 13.71672738 21.34861111 13.08886165 17.8125 12.1875 C16.884375 12.125625 15.95625 12.06375 15 12 C14.01 11.34 13.02 10.68 12 10 C12 8.68 12 7.36 12 6 C11.38511719 5.81824219 10.77023438 5.63648437 10.13671875 5.44921875 C9.32847656 5.19785156 8.52023438 4.94648437 7.6875 4.6875 C6.88699219 4.44386719 6.08648437 4.20023437 5.26171875 3.94921875 C2.90035427 2.95817977 1.66120007 1.91925057 0 0 Z " fill="#71BAE2" transform="translate(167,66)"/>
<path d="M0 0 C0.91942383 0.03915527 1.83884766 0.07831055 2.78613281 0.11865234 C8.07128462 0.36973072 13.25899354 0.83390214 18.5 1.5625 C18.5 1.8925 18.5 2.2225 18.5 2.5625 C12.45345349 2.58743184 6.40693767 2.60546863 0.36035156 2.61743164 C-1.69173708 2.62242495 -3.74382223 2.62922191 -5.79589844 2.63793945 C-27.6727133 2.72847155 -27.6727133 2.72847155 -37.5 1.5625 C-37.5 1.2325 -37.5 0.9025 -37.5 0.5625 C-25.04736604 -1.11381611 -12.51331803 -0.5421461 0 0 Z " fill="#133957" transform="translate(170.5,229.4375)"/>
<path d="M0 0 C0 0.99 0 1.98 0 3 C-1.6875 4.2890625 -1.6875 4.2890625 -4 5.625 C-14.2366053 12.20338272 -21.86760917 22.98854045 -24.69140625 34.921875 C-24.79324219 35.60765625 -24.89507812 36.2934375 -25 37 C-25.66 37 -26.32 37 -27 37 C-26.42126065 24.26773433 -17.89911427 14.31074308 -9 6 C-6.10889322 3.77543081 -3.17800759 1.78910057 0 0 Z " fill="#689BBE" transform="translate(130,70)"/>
<path d="M0 0 C3 0 3 0 5.078125 2.01171875 C5.79484375 2.89472656 6.5115625 3.77773438 7.25 4.6875 C8.34054688 5.99267578 8.34054688 5.99267578 9.453125 7.32421875 C11 10 11 10 10.859375 12.76953125 C10 15 10 15 8 16 C5.96767366 16.08527628 3.93252994 16.10716135 1.8984375 16.09765625 C0.68671875 16.09443359 -0.525 16.09121094 -1.7734375 16.08789062 C-3.04445312 16.07951172 -4.31546875 16.07113281 -5.625 16.0625 C-6.90375 16.05798828 -8.1825 16.05347656 -9.5 16.04882812 C-12.66671292 16.03701203 -15.83333356 16.02053815 -19 16 C-19 15.67 -19 15.34 -19 15 C-5.635 14.01 -5.635 14.01 8 13 C6.97912437 8.91649746 6.19457728 7.7812317 3.4375 4.8125 C0 1.08450704 0 1.08450704 0 0 Z " fill="#13314A" transform="translate(203,331)"/>
<path d="M0 0 C0.66 0 1.32 0 2 0 C2.09796875 0.58007812 2.1959375 1.16015625 2.296875 1.7578125 C3.95608075 10.4257322 7.86701643 15.87316806 15 21 C17.74547874 22.37050596 17.74547874 22.37050596 20 23 C19.67 23.66 19.34 24.32 19 25 C11.96349485 23.41678634 6.41808704 18.63971579 2.5625 12.625 C0.72546354 8.36307541 0.20859568 4.5995347 0 0 Z " fill="#0C2543" transform="translate(49,322)"/>
<path d="M0 0 C3.75 3.75 3.75 3.75 5 6 C4.1875 9.25 4.1875 9.25 3 12 C2.34 12 1.68 12 1 12 C1.33 18.27 1.66 24.54 2 31 C1.34 31.33 0.68 31.66 0 32 C0 21.44 0 10.88 0 0 Z " fill="#7FB8DA" transform="translate(259,51)"/>
<path d="M0 0 C0.66 0.66 1.32 1.32 2 2 C-6.74655816 8.62423155 -14.22876261 13.6918777 -25 16 C-25.33 15.34 -25.66 14.68 -26 14 C-25.26136719 13.79246094 -24.52273437 13.58492187 -23.76171875 13.37109375 C-14.90357988 10.68101092 -6.40427581 6.90821883 0 0 Z " fill="#0B223D" transform="translate(190,156)"/>
<path d="M0 0 C0.66 0.33 1.32 0.66 2 1 C2 3.66666667 2 6.33333333 2 9 C-3.94 8.34 -9.88 7.68 -16 7 C-16 6.67 -16 6.34 -16 6 C-12.04 6 -8.08 6 -4 6 C-4.66 5.01 -5.32 4.02 -6 3 C-4.03533587 1.93224776 -2.03144641 0.93446535 0 0 Z " fill="#92CAEC" transform="translate(166,129)"/>
<path d="M0 0 C2.12156879 3.55876055 3.29050472 5.69272876 2.375 9.8125 C1 12 1 12 -2 14 C-2.33 13.34 -2.66 12.68 -3 12 C-2.484375 11.62875 -1.96875 11.2575 -1.4375 10.875 C0.3493053 8.97786078 0.3493053 8.97786078 -0.25 5.875 C-0.70933524 3.12209159 -0.70933524 3.12209159 -2 2 C-3.48638992 1.84344973 -4.97949127 1.74933057 -6.47265625 1.68359375 C-7.82133789 1.62075195 -7.82133789 1.62075195 -9.19726562 1.55664062 C-10.14279297 1.51732422 -11.08832031 1.47800781 -12.0625 1.4375 C-13.01189453 1.39431641 -13.96128906 1.35113281 -14.93945312 1.30664062 C-17.29281353 1.20020724 -19.64628354 1.09818992 -22 1 C-22 0.67 -22 0.34 -22 0 C-19.27119539 -0.19555932 -16.54228931 -0.38170447 -13.8125 -0.5625 C-13.04357422 -0.61857422 -12.27464844 -0.67464844 -11.48242188 -0.73242188 C-3.52733897 -1.24455168 -3.52733897 -1.24455168 0 0 Z " fill="#082242" transform="translate(280,134)"/>
<path d="M0 0 C0.66 0.33 1.32 0.66 2 1 C0.11734634 10.24211795 -3.59299189 18.04381977 -10 25 C-10.66 24.67 -11.32 24.34 -12 24 C-11.54109375 23.39414063 -11.0821875 22.78828125 -10.609375 22.1640625 C-5.52820921 15.22549577 -1.95604048 8.39946796 0 0 Z " fill="#659CBA" transform="translate(204,130)"/>
<path d="M0 0 C1.3096875 -0.00257812 2.619375 -0.00515625 3.96875 -0.0078125 C6.72235924 0.09575245 8.90352847 0.29041986 11.5 1.125 C11.5 1.785 11.5 2.445 11.5 3.125 C9.52 3.455 7.54 3.785 5.5 4.125 C5.5 3.795 5.5 3.465 5.5 3.125 C-0.11 3.125 -5.72 3.125 -11.5 3.125 C-11.5 2.465 -11.5 1.805 -11.5 1.125 C-7.67904503 -0.1031641 -3.98826961 -0.00785092 0 0 Z " fill="#65A3C6" transform="translate(154.5,63.875)"/>
<path d="M0 0 C9.16530417 0.18915262 9.16530417 0.18915262 12.1875 3.125 C13.22360316 6.79121119 12.90288978 9.31898781 12 13 C10 15 10 15 6.875 15.125 C5.92625 15.08375 4.9775 15.0425 4 15 C7.75 13 7.75 13 10 13 C10.36935142 8.4040744 10.36935142 8.4040744 9 4.125 C5.8045594 2.32756466 2.63526893 2.29797286 -1 2 C-0.67 1.34 -0.34 0.68 0 0 Z " fill="#0C2545" transform="translate(182,229)"/>
<path d="M0 0 C1.34888732 0.00015905 2.69778075 0.00584927 4.04663086 0.01586914 C5.10991859 0.01799156 5.10991859 0.01799156 6.19468689 0.02015686 C8.46699173 0.02577096 10.73919936 0.03832576 13.01147461 0.05102539 C14.54858257 0.05603858 16.08569206 0.0606018 17.62280273 0.06469727 C21.39823103 0.07574497 25.17358632 0.09301898 28.94897461 0.11352539 C28.94897461 0.44352539 28.94897461 0.77352539 28.94897461 1.11352539 C19.04897461 1.44352539 9.14897461 1.77352539 -1.05102539 2.11352539 C-2.04102539 4.09352539 -3.03102539 6.07352539 -4.05102539 8.11352539 C-4.71102539 7.78352539 -5.37102539 7.45352539 -6.05102539 7.11352539 C-3.82618804 0.14236836 -3.82618804 0.14236836 0 0 Z " fill="#07203C" transform="translate(228.051025390625,133.886474609375)"/>
<path d="M0 0 C1.485 0.99 1.485 0.99 3 2 C5.75218977 2.24073135 8.41217466 2.37282688 11.16796875 2.4140625 C11.96278152 2.43342865 12.7575943 2.4527948 13.57649231 2.4727478 C16.11338595 2.53249442 18.65032509 2.57890883 21.1875 2.625 C22.90822284 2.66318435 24.62892665 2.70223635 26.34960938 2.7421875 C30.56625165 2.83819179 34.7829834 2.92224076 39 3 C39 3.33 39 3.66 39 4 C34.10763187 4.21765035 29.21502888 4.41438434 24.32104492 4.59204102 C22.65740665 4.65534832 20.99397294 4.72429949 19.33081055 4.79907227 C16.93570299 4.90576017 14.54058577 4.99191829 12.14453125 5.07421875 C11.4047554 5.11157639 10.66497955 5.14893402 9.90278625 5.18742371 C5.36667775 5.31856432 2.64444557 4.73724453 -1 2 C-0.67 1.34 -0.34 0.68 0 0 Z " fill="#172947" transform="translate(69,327)"/>
<path d="M0 0 C0 0.66 0 1.32 0 2 C-13.58103278 8.76469694 -13.58103278 8.76469694 -21 9 C-21.99 8.34 -22.98 7.68 -24 7 C-22.37191406 6.61908203 -22.37191406 6.61908203 -20.7109375 6.23046875 C-19.26553276 5.88319618 -17.82022535 5.53551836 -16.375 5.1875 C-15.66214844 5.02185547 -14.94929688 4.85621094 -14.21484375 4.68554688 C-9.5634648 3.55470704 -4.52909843 0 0 0 Z " fill="#259E7C" transform="translate(296,340)"/>
<path d="M0 0 C1.26026798 2.52053595 0.91874445 3.8542098 0.5625 6.625 C0.46066406 7.44226563 0.35882813 8.25953125 0.25390625 9.1015625 C0.17011719 9.72804687 0.08632812 10.35453125 0 11 C-1.66666667 11 -3.33333333 11 -5 11 C-5 10.01 -5 9.02 -5 8 C-5.66 7.67 -6.32 7.34 -7 7 C-7 6.34 -7 5.68 -7 5 C-6.34 5 -5.68 5 -5 5 C-4.67 4.01 -4.34 3.02 -4 2 C-3.01 3.485 -3.01 3.485 -2 5 C-1.34 3.35 -0.68 1.7 0 0 Z " fill="#73B0D1" transform="translate(207,119)"/>
<path d="M0 0 C0.66 0 1.32 0 2 0 C-0.48548064 5.59233144 -4.30675851 9.49131442 -9.0625 13.25 C-9.91972656 13.93578125 -10.77695312 14.6215625 -11.66015625 15.328125 C-14 17 -14 17 -17 18 C-15.8494085 14.54822551 -14.84173899 14.21073037 -11.89453125 12.375 C-7.54255753 9.21645413 -2.42513092 4.85026184 0 0 Z " fill="#299E73" transform="translate(315,322)"/>
<path d="M0 0 C5.61 0 11.22 0 17 0 C16.67 0.99 16.34 1.98 16 3 C10.72 3 5.44 3 0 3 C0 2.01 0 1.02 0 0 Z " fill="#133453" transform="translate(190,20)"/>
<path d="M0 0 C4.69159716 3.38772897 9.0299782 6.78185183 13 11 C12.34 12.32 11.68 13.64 11 15 C10.9175 14.21625 10.835 13.4325 10.75 12.625 C10.5025 11.75875 10.255 10.8925 10 10 C8.23408113 8.99083967 8.23408113 8.99083967 6 8 C3.84834426 6.14294749 1.79718093 4.20454194 0 2 C0 1.34 0 0.68 0 0 Z " fill="#112A44" transform="translate(314,80)"/>
<path d="M0 0 C0.76183594 0.66708984 0.76183594 0.66708984 1.5390625 1.34765625 C5.92143377 5.09112824 5.92143377 5.09112824 11.4375 6 C14.14215265 5.27456737 14.14215265 5.27456737 15 3 C15.66 3.33 16.32 3.66 17 4 C15.37064584 6.65841995 14.51624223 7.83222128 11.5 8.8125 C9 9 9 9 6 8 C6 7.34 6 6.68 6 6 C5.401875 5.731875 4.80375 5.46375 4.1875 5.1875 C2.02775192 4.01506533 0.64209744 2.80630718 -1 1 C-0.67 0.67 -0.34 0.34 0 0 Z " fill="#08263A" transform="translate(311,225)"/>
<path d="M0 0 C3 0 3 0 5.078125 2.01171875 C5.79484375 2.89472656 6.5115625 3.77773438 7.25 4.6875 C8.34054688 5.99267578 8.34054688 5.99267578 9.453125 7.32421875 C11 10 11 10 10.734375 12.83203125 C10.49203125 13.54746094 10.2496875 14.26289063 10 15 C8 13 8 13 7.59765625 11.13671875 C6.81722241 8.34654026 5.3986095 6.92415932 3.4375 4.8125 C0 1.08450704 0 1.08450704 0 0 Z " fill="#0C2439" transform="translate(203,331)"/>
<path d="M0 0 C2.4375 0.375 2.4375 0.375 5 1 C6.58791315 4.17582631 6.41019741 7.54161153 6 11 C4.625 13 4.625 13 3 14 C2.34 14 1.68 14 1 14 C1 13.34 1 12.68 1 12 C1.66 11.67 2.32 11.34 3 11 C3.53673893 5.63909407 3.53673893 5.63909407 1.5 1 C1.005 0.67 0.51 0.34 0 0 Z " fill="#0E2947" transform="translate(276,191)"/>
<path d="M0 0 C4.17807684 1.37543768 6.62354167 3.2434161 9.6875 6.375 C10.45449219 7.14585938 11.22148437 7.91671875 12.01171875 8.7109375 C13.79595261 10.76508493 14.93887662 12.51458803 16 15 C12.43802875 13.52114586 10.48328012 11.5447942 8 8.625 C5.43323048 5.62709341 2.82279388 2.75978509 0 0 Z " fill="#689AB9" transform="translate(182,73)"/>
<path d="M0 0 C0.66 0.33 1.32 0.66 2 1 C1.47599609 1.99580078 1.47599609 1.99580078 0.94140625 3.01171875 C0.25884766 4.33623047 0.25884766 4.33623047 -0.4375 5.6875 C-0.88996094 6.55761719 -1.34242187 7.42773438 -1.80859375 8.32421875 C-2.95991928 10.90998264 -3.56320753 13.21356528 -4 16 C-4.66 16 -5.32 16 -6 16 C-5.53118166 10.37417987 -4.15551956 4.15551956 0 0 Z " fill="#66A4C8" transform="translate(109,91)"/>
<path d="M0 0 C2.875 0.3125 2.875 0.3125 6 1 C6.66 1.99 7.32 2.98 8 4 C2.39 3.67 -3.22 3.34 -9 3 C-9 2.67 -9 2.34 -9 2 C-6.03 2 -3.06 2 0 2 C0 1.34 0 0.68 0 0 Z " fill="#7BB7D9" transform="translate(157,132)"/>
<path d="M0 0 C5.34844008 0.53484401 9.35796103 2.46690767 14 5 C11.26980214 6.06528748 10.20701188 6.07998186 7.421875 5.00390625 C6.54015625 4.52824219 5.6584375 4.05257812 4.75 3.5625 C3.85796875 3.08941406 2.9659375 2.61632812 2.046875 2.12890625 C1.37140625 1.75636719 0.6959375 1.38382812 0 1 C0 0.67 0 0.34 0 0 Z " fill="#62A1C1" transform="translate(167,66)"/>
<path d="M0 0 C0.33 0.66 0.66 1.32 1 2 C0.01 2.66 -0.98 3.32 -2 4 C-1.67 5.65 -1.34 7.3 -1 9 C-1.99 9 -2.98 9 -4 9 C-4.33 7.35 -4.66 5.7 -5 4 C-3.35 2.68 -1.7 1.36 0 0 Z " fill="#244C6C" transform="translate(123,148)"/>
<path d="M0 0 C5.29158974 1.40071493 7.77478044 4.85487245 11 9 C10.01 9.495 10.01 9.495 9 10 C8.2575 9.05125 7.515 8.1025 6.75 7.125 C4.72154781 4.67467599 3.0422152 3.12674637 0 2 C0 1.34 0 0.68 0 0 Z " fill="#174263" transform="translate(182,147)"/>
<path d="M0 0 C3.53600465 1.91135386 5.78972846 3.62642766 8 7 C4.21388773 6.45912682 2.44599233 4.88277668 0 2 C0 1.34 0 0.68 0 0 Z " fill="#0C2D45" transform="translate(295,62)"/>
<path d="M0 0 C3.36720387 1.39332574 4.9859524 2.9789286 7 6 C4 6 4 6 1.8125 4.125 C0 2 0 2 0 0 Z " fill="#112A43" transform="translate(279,47)"/>
<path d="M0 0 C1.98 0 3.96 0 6 0 C6 0.33 6 0.66 6 1 C4.02 1 2.04 1 0 1 C0 0.67 0 0.34 0 0 Z " fill="#000015" transform="translate(112,19)"/>
<path d="M0 0 C3 1 3 1 3 1 Z " fill="#00002A" transform="translate(89,19)"/>
<path d="M0 0 C2 1 2 1 2 1 Z " fill="#000000" transform="translate(119,19)"/>
<path d="M0 0 C2 1 2 1 2 1 Z " fill="#000000" transform="translate(79,19)"/>
<path d="" fill="#FFFFFF" transform="translate(0,0)"/>
<path d="" fill="#FFFFFF" transform="translate(0,0)"/>
<path d="" fill="#FFFFFF" transform="translate(0,0)"/>
<path d="" fill="#FFFFFF" transform="translate(0,0)"/>
<path d="" fill="#FFFFFF" transform="translate(0,0)"/>
<path d="" fill="#FFFFFF" transform="translate(0,0)"/>
<path d="" fill="#FFFFFF" transform="translate(0,0)"/>
<path d="" fill="#FFFFFF" transform="translate(0,0)"/>
<path d="" fill="#FFFFFF" transform="translate(0,0)"/>
<path d="" fill="#FFFFFF" transform="translate(0,0)"/>
<path d="" fill="#FFFFFF" transform="translate(0,0)"/>
<path d="" fill="#FFFFFF" transform="translate(0,0)"/>
<path d="" fill="#FFFFFF" transform="translate(0,0)"/>
<path d="" fill="#FFFFFF" transform="translate(0,0)"/>
<path d="" fill="#FFFFFF" transform="translate(0,0)"/>
<path d="" fill="#FFFFFF" transform="translate(0,0)"/>
<path d="" fill="#FFFFFF" transform="translate(0,0)"/>
<path d="" fill="#FFFFFF" transform="translate(0,0)"/>
<path d="" fill="#FFFFFF" transform="translate(0,0)"/>
<path d="" fill="#FFFFFF" transform="translate(0,0)"/>
<path d="" fill="#FFFFFF" transform="translate(0,0)"/>
<path d="" fill="#FFFFFF" transform="translate(0,0)"/>
<path d="" fill="#FFFFFF" transform="translate(0,0)"/>
<path d="" fill="#FFFFFF" transform="translate(0,0)"/>
<path d="" fill="#FFFFFF" transform="translate(0,0)"/>
<path d="" fill="#FFFFFF" transform="translate(0,0)"/>
<path d="" fill="#FFFFFF" transform="translate(0,0)"/>
<path d="" fill="#FFFFFF" transform="translate(0,0)"/>
<path d="" fill="#FFFFFF" transform="translate(0,0)"/>
<path d="" fill="#FFFFFF" transform="translate(0,0)"/>
<path d="" fill="#FFFFFF" transform="translate(0,0)"/>
<path d="" fill="#FFFFFF" transform="translate(0,0)"/>
<path d="" fill="#FFFFFF" transform="translate(0,0)"/>
<path d="" fill="#FFFFFF" transform="translate(0,0)"/>
<path d="" fill="#FFFFFF" transform="translate(0,0)"/>
<path d="" fill="#FFFFFF" transform="translate(0,0)"/>
<path d="" fill="#FFFFFF" transform="translate(0,0)"/>
<path d="" fill="#FFFFFF" transform="translate(0,0)"/>
<path d="" fill="#FFFFFF" transform="translate(0,0)"/>
<path d="" fill="#FFFFFF" transform="translate(0,0)"/>
<path d="" fill="#FFFFFF" transform="translate(0,0)"/>
<path d="" fill="#FFFFFF" transform="translate(0,0)"/>
<path d="" fill="#FFFFFF" transform="translate(0,0)"/>
<path d="" fill="#FFFFFF" transform="translate(0,0)"/>
<path d="" fill="#FFFFFF" transform="translate(0,0)"/>
<path d="" fill="#FFFFFF" transform="translate(0,0)"/>
<path d="" fill="#FFFFFF" transform="translate(0,0)"/>
<path d="" fill="#FFFFFF" transform="translate(0,0)"/>
<path d="" fill="#FFFFFF" transform="translate(0,0)"/>
<path d="" fill="#FFFFFF" transform="translate(0,0)"/>
<path d="" fill="#FFFFFF" transform="translate(0,0)"/>
<path d="" fill="#000000" transform="translate(0,0)"/>
<path d="" fill="#FFFFFF" transform="translate(0,0)"/>
<path d="" fill="#FFFFFF" transform="translate(0,0)"/>
<path d="" fill="#FFFFFF" transform="translate(0,0)"/>
<path d="" fill="#000000" transform="translate(0,0)"/>
<path d="" fill="#000000" transform="translate(0,0)"/>
<path d="" fill="#000000" transform="translate(0,0)"/>
<path d="" fill="#000000" transform="translate(0,0)"/>
<path d="" fill="#000080" transform="translate(0,0)"/>
<path d="" fill="#000080" transform="translate(0,0)"/>
<path d="" fill="#FFFFFF" transform="translate(0,0)"/>
<path d="" fill="#FFFFFF" transform="translate(0,0)"/>
</svg>
